<mxfile host="app.diagrams.net" modified="2023-11-21T07:57:31.887Z" agent="Mozilla/5.0 (Windows NT 10.0; Win64; x64) AppleWebKit/537.36 (KHTML, like Gecko) Chrome/119.0.0.0 Safari/537.36" etag="_EiBX80qb7RgqHUoeFbV" version="22.1.3" type="github" pages="3">
  <diagram id="C5RBs43oDa-KdzZeNtuy" name="main">
    <mxGraphModel dx="954" dy="1771" grid="1" gridSize="10" guides="1" tooltips="1" connect="1" arrows="1" fold="1" page="1" pageScale="1" pageWidth="827" pageHeight="1169" math="0" shadow="0">
      <root>
        <mxCell id="WIyWlLk6GJQsqaUBKTNV-0" />
        <mxCell id="WIyWlLk6GJQsqaUBKTNV-1" parent="WIyWlLk6GJQsqaUBKTNV-0" />
        <mxCell id="6enz5OEJdrbTb5CaprTX-15" style="edgeStyle=orthogonalEdgeStyle;rounded=0;orthogonalLoop=1;jettySize=auto;html=1;exitX=0.5;exitY=1;exitDx=0;exitDy=0;entryX=0.5;entryY=0;entryDx=0;entryDy=0;entryPerimeter=0;labelBackgroundColor=none;fontColor=default;" parent="WIyWlLk6GJQsqaUBKTNV-1" source="6enz5OEJdrbTb5CaprTX-1" target="6enz5OEJdrbTb5CaprTX-9" edge="1">
          <mxGeometry relative="1" as="geometry" />
        </mxCell>
        <mxCell id="6enz5OEJdrbTb5CaprTX-1" value="Sub function&lt;br&gt;Log in&lt;br&gt;(return 1 or 2 or 3)" style="shape=process;whiteSpace=wrap;html=1;backgroundOutline=1;rounded=0;labelBackgroundColor=none;" parent="WIyWlLk6GJQsqaUBKTNV-1" vertex="1">
          <mxGeometry x="320" y="-1040" width="160" height="60" as="geometry" />
        </mxCell>
        <mxCell id="6enz5OEJdrbTb5CaprTX-2" value="" style="endArrow=classic;html=1;rounded=0;exitX=0.5;exitY=1;exitDx=0;exitDy=0;exitPerimeter=0;entryX=0.5;entryY=0;entryDx=0;entryDy=0;labelBackgroundColor=none;fontColor=default;" parent="WIyWlLk6GJQsqaUBKTNV-1" target="6enz5OEJdrbTb5CaprTX-1" edge="1">
          <mxGeometry width="50" height="50" relative="1" as="geometry">
            <mxPoint x="400" y="-1070" as="sourcePoint" />
            <mxPoint x="440" y="-920" as="targetPoint" />
          </mxGeometry>
        </mxCell>
        <mxCell id="6enz5OEJdrbTb5CaprTX-9" value="If return = 3" style="strokeWidth=2;html=1;shape=mxgraph.flowchart.decision;whiteSpace=wrap;rounded=0;labelBackgroundColor=none;" parent="WIyWlLk6GJQsqaUBKTNV-1" vertex="1">
          <mxGeometry x="320" y="-950" width="160" height="60" as="geometry" />
        </mxCell>
        <mxCell id="6enz5OEJdrbTb5CaprTX-12" value="" style="edgeStyle=orthogonalEdgeStyle;rounded=0;orthogonalLoop=1;jettySize=auto;html=1;labelBackgroundColor=none;fontColor=default;" parent="WIyWlLk6GJQsqaUBKTNV-1" target="6enz5OEJdrbTb5CaprTX-1" edge="1">
          <mxGeometry relative="1" as="geometry">
            <mxPoint x="400" y="-1070" as="sourcePoint" />
          </mxGeometry>
        </mxCell>
        <mxCell id="6enz5OEJdrbTb5CaprTX-17" value="" style="endArrow=none;html=1;rounded=0;exitX=1;exitY=0.5;exitDx=0;exitDy=0;exitPerimeter=0;labelBackgroundColor=none;fontColor=default;" parent="WIyWlLk6GJQsqaUBKTNV-1" source="6enz5OEJdrbTb5CaprTX-9" edge="1">
          <mxGeometry width="50" height="50" relative="1" as="geometry">
            <mxPoint x="390" y="-870" as="sourcePoint" />
            <mxPoint x="560" y="-920" as="targetPoint" />
          </mxGeometry>
        </mxCell>
        <mxCell id="6enz5OEJdrbTb5CaprTX-18" value="" style="endArrow=classic;html=1;rounded=0;entryX=1;entryY=0.5;entryDx=0;entryDy=0;labelBackgroundColor=none;fontColor=default;" parent="WIyWlLk6GJQsqaUBKTNV-1" target="6enz5OEJdrbTb5CaprTX-1" edge="1">
          <mxGeometry width="50" height="50" relative="1" as="geometry">
            <mxPoint x="560" y="-1010" as="sourcePoint" />
            <mxPoint x="440" y="-920" as="targetPoint" />
          </mxGeometry>
        </mxCell>
        <mxCell id="6enz5OEJdrbTb5CaprTX-19" value="" style="endArrow=none;html=1;rounded=0;labelBackgroundColor=none;fontColor=default;" parent="WIyWlLk6GJQsqaUBKTNV-1" edge="1">
          <mxGeometry width="50" height="50" relative="1" as="geometry">
            <mxPoint x="560" y="-920" as="sourcePoint" />
            <mxPoint x="560" y="-1010" as="targetPoint" />
          </mxGeometry>
        </mxCell>
        <mxCell id="6enz5OEJdrbTb5CaprTX-20" value="Yes" style="text;html=1;align=center;verticalAlign=middle;resizable=0;points=[];autosize=1;strokeColor=none;fillColor=none;" parent="WIyWlLk6GJQsqaUBKTNV-1" vertex="1">
          <mxGeometry x="485" y="-950" width="40" height="30" as="geometry" />
        </mxCell>
        <mxCell id="6enz5OEJdrbTb5CaprTX-21" value="" style="endArrow=classic;html=1;rounded=0;exitX=0.5;exitY=1;exitDx=0;exitDy=0;exitPerimeter=0;entryX=0;entryY=1;entryDx=0;entryDy=0;" parent="WIyWlLk6GJQsqaUBKTNV-1" source="6enz5OEJdrbTb5CaprTX-9" target="6enz5OEJdrbTb5CaprTX-22" edge="1">
          <mxGeometry width="50" height="50" relative="1" as="geometry">
            <mxPoint x="390" y="-870" as="sourcePoint" />
            <mxPoint x="400" y="-840" as="targetPoint" />
          </mxGeometry>
        </mxCell>
        <mxCell id="6enz5OEJdrbTb5CaprTX-22" value="No" style="text;html=1;strokeColor=none;fillColor=none;align=center;verticalAlign=middle;whiteSpace=wrap;rounded=0;" parent="WIyWlLk6GJQsqaUBKTNV-1" vertex="1">
          <mxGeometry x="400" y="-890" width="60" height="30" as="geometry" />
        </mxCell>
        <mxCell id="6enz5OEJdrbTb5CaprTX-23" value="If return = 2" style="strokeWidth=2;html=1;shape=mxgraph.flowchart.decision;whiteSpace=wrap;" parent="WIyWlLk6GJQsqaUBKTNV-1" vertex="1">
          <mxGeometry x="320" y="-860" width="160" height="60" as="geometry" />
        </mxCell>
        <mxCell id="6enz5OEJdrbTb5CaprTX-24" value="" style="endArrow=none;html=1;rounded=0;exitX=1;exitY=0.5;exitDx=0;exitDy=0;exitPerimeter=0;" parent="WIyWlLk6GJQsqaUBKTNV-1" source="6enz5OEJdrbTb5CaprTX-23" edge="1">
          <mxGeometry width="50" height="50" relative="1" as="geometry">
            <mxPoint x="370" y="-830" as="sourcePoint" />
            <mxPoint x="640" y="-830" as="targetPoint" />
          </mxGeometry>
        </mxCell>
        <mxCell id="6enz5OEJdrbTb5CaprTX-29" value="" style="endArrow=classic;html=1;rounded=0;exitX=0.5;exitY=1;exitDx=0;exitDy=0;exitPerimeter=0;" parent="WIyWlLk6GJQsqaUBKTNV-1" source="6enz5OEJdrbTb5CaprTX-23" edge="1">
          <mxGeometry width="50" height="50" relative="1" as="geometry">
            <mxPoint x="370" y="-830" as="sourcePoint" />
            <mxPoint x="400" y="-760" as="targetPoint" />
          </mxGeometry>
        </mxCell>
        <mxCell id="6enz5OEJdrbTb5CaprTX-30" value="" style="endArrow=classic;html=1;rounded=0;" parent="WIyWlLk6GJQsqaUBKTNV-1" edge="1">
          <mxGeometry width="50" height="50" relative="1" as="geometry">
            <mxPoint x="640" y="-830" as="sourcePoint" />
            <mxPoint x="640" y="-760" as="targetPoint" />
          </mxGeometry>
        </mxCell>
        <mxCell id="NWxNYZcZLYWFYry7puAv-0" value="Sub function&lt;br&gt;Admin Version" style="shape=process;whiteSpace=wrap;html=1;backgroundOutline=1;rounded=0;labelBackgroundColor=none;" parent="WIyWlLk6GJQsqaUBKTNV-1" vertex="1">
          <mxGeometry x="320" y="-760" width="160" height="60" as="geometry" />
        </mxCell>
        <mxCell id="NWxNYZcZLYWFYry7puAv-1" value="Sub function&lt;br&gt;User Version" style="shape=process;whiteSpace=wrap;html=1;backgroundOutline=1;rounded=0;labelBackgroundColor=none;" parent="WIyWlLk6GJQsqaUBKTNV-1" vertex="1">
          <mxGeometry x="560" y="-760" width="160" height="60" as="geometry" />
        </mxCell>
        <mxCell id="NWxNYZcZLYWFYry7puAv-2" value="" style="endArrow=none;html=1;rounded=0;entryX=0.5;entryY=1;entryDx=0;entryDy=0;" parent="WIyWlLk6GJQsqaUBKTNV-1" target="NWxNYZcZLYWFYry7puAv-0" edge="1">
          <mxGeometry width="50" height="50" relative="1" as="geometry">
            <mxPoint x="400" y="-640" as="sourcePoint" />
            <mxPoint x="440" y="-790" as="targetPoint" />
          </mxGeometry>
        </mxCell>
        <mxCell id="NWxNYZcZLYWFYry7puAv-3" value="" style="endArrow=none;html=1;rounded=0;" parent="WIyWlLk6GJQsqaUBKTNV-1" edge="1">
          <mxGeometry width="50" height="50" relative="1" as="geometry">
            <mxPoint x="640" y="-640" as="sourcePoint" />
            <mxPoint x="640" y="-700" as="targetPoint" />
          </mxGeometry>
        </mxCell>
        <mxCell id="NWxNYZcZLYWFYry7puAv-4" value="" style="endArrow=none;html=1;rounded=0;" parent="WIyWlLk6GJQsqaUBKTNV-1" edge="1">
          <mxGeometry width="50" height="50" relative="1" as="geometry">
            <mxPoint x="200" y="-640" as="sourcePoint" />
            <mxPoint x="640" y="-640" as="targetPoint" />
            <Array as="points" />
          </mxGeometry>
        </mxCell>
        <mxCell id="NWxNYZcZLYWFYry7puAv-5" value="" style="endArrow=none;html=1;rounded=0;" parent="WIyWlLk6GJQsqaUBKTNV-1" edge="1">
          <mxGeometry width="50" height="50" relative="1" as="geometry">
            <mxPoint x="200" y="-640" as="sourcePoint" />
            <mxPoint x="200" y="-1010" as="targetPoint" />
          </mxGeometry>
        </mxCell>
        <mxCell id="NWxNYZcZLYWFYry7puAv-6" value="" style="endArrow=classic;html=1;rounded=0;entryX=0;entryY=0.5;entryDx=0;entryDy=0;" parent="WIyWlLk6GJQsqaUBKTNV-1" target="6enz5OEJdrbTb5CaprTX-1" edge="1">
          <mxGeometry width="50" height="50" relative="1" as="geometry">
            <mxPoint x="200" y="-1010" as="sourcePoint" />
            <mxPoint x="440" y="-860" as="targetPoint" />
          </mxGeometry>
        </mxCell>
        <mxCell id="3lK4cLOx4qY84Cscn4ym-0" value="Start" style="rounded=1;whiteSpace=wrap;html=1;" parent="WIyWlLk6GJQsqaUBKTNV-1" vertex="1">
          <mxGeometry x="320" y="-1120" width="160" height="60" as="geometry" />
        </mxCell>
        <mxCell id="UwaHPFOJyRqvjKC1ZZcI-0" value="Yes" style="text;html=1;strokeColor=none;fillColor=none;align=center;verticalAlign=middle;whiteSpace=wrap;rounded=0;" parent="WIyWlLk6GJQsqaUBKTNV-1" vertex="1">
          <mxGeometry x="475" y="-860" width="60" height="30" as="geometry" />
        </mxCell>
        <mxCell id="UwaHPFOJyRqvjKC1ZZcI-1" value="No" style="text;html=1;strokeColor=none;fillColor=none;align=center;verticalAlign=middle;whiteSpace=wrap;rounded=0;" parent="WIyWlLk6GJQsqaUBKTNV-1" vertex="1">
          <mxGeometry x="400" y="-800" width="60" height="30" as="geometry" />
        </mxCell>
      </root>
    </mxGraphModel>
  </diagram>
  <diagram id="lPfPYhZX37Ys6rhQY8Yy" name="Log in">
    <mxGraphModel dx="954" dy="602" grid="1" gridSize="10" guides="1" tooltips="1" connect="1" arrows="1" fold="1" page="1" pageScale="1" pageWidth="850" pageHeight="1100" math="0" shadow="0">
      <root>
        <mxCell id="0" />
        <mxCell id="1" parent="0" />
        <mxCell id="Y56wRlROdFcQcHGWlE_C-2" value="" style="edgeStyle=orthogonalEdgeStyle;rounded=0;orthogonalLoop=1;jettySize=auto;html=1;" parent="1" source="LkUEKqmfBQPEc4qv643J-1" target="Y56wRlROdFcQcHGWlE_C-1" edge="1">
          <mxGeometry relative="1" as="geometry" />
        </mxCell>
        <mxCell id="LkUEKqmfBQPEc4qv643J-1" value="Start&lt;br&gt;(Log in)&lt;br&gt;(return 1 or 2 or 3)" style="rounded=1;whiteSpace=wrap;html=1;" parent="1" vertex="1">
          <mxGeometry x="360" y="50" width="120" height="60" as="geometry" />
        </mxCell>
        <mxCell id="TfebohK-rRCDdvjL5UtZ-2" value="" style="edgeStyle=orthogonalEdgeStyle;rounded=0;orthogonalLoop=1;jettySize=auto;html=1;" edge="1" parent="1" source="Y56wRlROdFcQcHGWlE_C-1" target="TfebohK-rRCDdvjL5UtZ-1">
          <mxGeometry relative="1" as="geometry" />
        </mxCell>
        <mxCell id="Y56wRlROdFcQcHGWlE_C-1" value="Input username" style="shape=parallelogram;perimeter=parallelogramPerimeter;whiteSpace=wrap;html=1;fixedSize=1;" parent="1" vertex="1">
          <mxGeometry x="320" y="160" width="200" height="60" as="geometry" />
        </mxCell>
        <mxCell id="TfebohK-rRCDdvjL5UtZ-5" value="" style="edgeStyle=orthogonalEdgeStyle;rounded=0;orthogonalLoop=1;jettySize=auto;html=1;" edge="1" parent="1" source="TfebohK-rRCDdvjL5UtZ-1" target="TfebohK-rRCDdvjL5UtZ-4">
          <mxGeometry relative="1" as="geometry" />
        </mxCell>
        <mxCell id="TfebohK-rRCDdvjL5UtZ-1" value="Input password" style="shape=parallelogram;perimeter=parallelogramPerimeter;whiteSpace=wrap;html=1;fixedSize=1;" vertex="1" parent="1">
          <mxGeometry x="320" y="280" width="200" height="60" as="geometry" />
        </mxCell>
        <mxCell id="TfebohK-rRCDdvjL5UtZ-7" value="" style="edgeStyle=orthogonalEdgeStyle;rounded=0;orthogonalLoop=1;jettySize=auto;html=1;" edge="1" parent="1" source="TfebohK-rRCDdvjL5UtZ-4" target="TfebohK-rRCDdvjL5UtZ-6">
          <mxGeometry relative="1" as="geometry" />
        </mxCell>
        <mxCell id="TfebohK-rRCDdvjL5UtZ-4" value="Read account data in Account folder" style="rounded=0;whiteSpace=wrap;html=1;" vertex="1" parent="1">
          <mxGeometry x="320" y="390" width="200" height="60" as="geometry" />
        </mxCell>
        <mxCell id="frLOJuZrzJgLOSuv3fP3-2" value="" style="edgeStyle=orthogonalEdgeStyle;rounded=0;orthogonalLoop=1;jettySize=auto;html=1;" edge="1" parent="1" source="TfebohK-rRCDdvjL5UtZ-6" target="frLOJuZrzJgLOSuv3fP3-1">
          <mxGeometry relative="1" as="geometry" />
        </mxCell>
        <mxCell id="frLOJuZrzJgLOSuv3fP3-5" value="" style="edgeStyle=orthogonalEdgeStyle;rounded=0;orthogonalLoop=1;jettySize=auto;html=1;" edge="1" parent="1" source="TfebohK-rRCDdvjL5UtZ-6" target="frLOJuZrzJgLOSuv3fP3-4">
          <mxGeometry relative="1" as="geometry" />
        </mxCell>
        <mxCell id="TfebohK-rRCDdvjL5UtZ-6" value="If username = admin&#39;s username&lt;br&gt;and password = admin&#39;s password" style="rhombus;whiteSpace=wrap;html=1;" vertex="1" parent="1">
          <mxGeometry x="280" y="500" width="280" height="80" as="geometry" />
        </mxCell>
        <mxCell id="frLOJuZrzJgLOSuv3fP3-1" value="return 1" style="strokeWidth=2;html=1;shape=mxgraph.flowchart.terminator;whiteSpace=wrap;" vertex="1" parent="1">
          <mxGeometry x="640" y="510" width="160" height="60" as="geometry" />
        </mxCell>
        <mxCell id="frLOJuZrzJgLOSuv3fP3-3" value="Yes" style="text;html=1;strokeColor=none;fillColor=none;align=center;verticalAlign=middle;whiteSpace=wrap;rounded=0;" vertex="1" parent="1">
          <mxGeometry x="550" y="510" width="60" height="30" as="geometry" />
        </mxCell>
        <mxCell id="frLOJuZrzJgLOSuv3fP3-4" value="If username = user&#39;s username&lt;br&gt;and password = user&#39;s password" style="rhombus;whiteSpace=wrap;html=1;" vertex="1" parent="1">
          <mxGeometry x="280" y="630" width="280" height="80" as="geometry" />
        </mxCell>
        <mxCell id="frLOJuZrzJgLOSuv3fP3-6" value="" style="endArrow=classic;html=1;rounded=0;exitX=1;exitY=0.5;exitDx=0;exitDy=0;" edge="1" parent="1" source="frLOJuZrzJgLOSuv3fP3-4">
          <mxGeometry width="50" height="50" relative="1" as="geometry">
            <mxPoint x="400" y="570" as="sourcePoint" />
            <mxPoint x="640" y="670" as="targetPoint" />
          </mxGeometry>
        </mxCell>
        <mxCell id="frLOJuZrzJgLOSuv3fP3-7" value="return 2" style="strokeWidth=2;html=1;shape=mxgraph.flowchart.terminator;whiteSpace=wrap;" vertex="1" parent="1">
          <mxGeometry x="640" y="640" width="160" height="60" as="geometry" />
        </mxCell>
        <mxCell id="frLOJuZrzJgLOSuv3fP3-8" value="Yes" style="text;html=1;strokeColor=none;fillColor=none;align=center;verticalAlign=middle;whiteSpace=wrap;rounded=0;" vertex="1" parent="1">
          <mxGeometry x="550" y="640" width="60" height="30" as="geometry" />
        </mxCell>
        <mxCell id="frLOJuZrzJgLOSuv3fP3-9" value="No" style="text;html=1;strokeColor=none;fillColor=none;align=center;verticalAlign=middle;whiteSpace=wrap;rounded=0;" vertex="1" parent="1">
          <mxGeometry x="420" y="580" width="60" height="30" as="geometry" />
        </mxCell>
        <mxCell id="frLOJuZrzJgLOSuv3fP3-10" value="No" style="text;html=1;strokeColor=none;fillColor=none;align=center;verticalAlign=middle;whiteSpace=wrap;rounded=0;" vertex="1" parent="1">
          <mxGeometry x="420" y="710" width="60" height="30" as="geometry" />
        </mxCell>
        <mxCell id="frLOJuZrzJgLOSuv3fP3-11" value="return 3" style="strokeWidth=2;html=1;shape=mxgraph.flowchart.terminator;whiteSpace=wrap;" vertex="1" parent="1">
          <mxGeometry x="340" y="870" width="160" height="60" as="geometry" />
        </mxCell>
        <mxCell id="Zry4dnPvfqmXmLOENEDX-1" value="" style="endArrow=classic;html=1;rounded=0;exitX=0;exitY=0;exitDx=0;exitDy=0;" edge="1" parent="1" source="frLOJuZrzJgLOSuv3fP3-10">
          <mxGeometry width="50" height="50" relative="1" as="geometry">
            <mxPoint x="400" y="770" as="sourcePoint" />
            <mxPoint x="420" y="760" as="targetPoint" />
          </mxGeometry>
        </mxCell>
        <mxCell id="cYk3f-sSgWu6lvyCfSIN-1" value="" style="edgeStyle=orthogonalEdgeStyle;rounded=0;orthogonalLoop=1;jettySize=auto;html=1;" edge="1" parent="1" source="Zry4dnPvfqmXmLOENEDX-2" target="frLOJuZrzJgLOSuv3fP3-11">
          <mxGeometry relative="1" as="geometry" />
        </mxCell>
        <mxCell id="Zry4dnPvfqmXmLOENEDX-2" value="display &quot;Username or password is incorrect&quot;" style="strokeWidth=2;html=1;shape=mxgraph.flowchart.display;whiteSpace=wrap;" vertex="1" parent="1">
          <mxGeometry x="280" y="760" width="280" height="60" as="geometry" />
        </mxCell>
      </root>
    </mxGraphModel>
  </diagram>
  <diagram id="Ozkw80WTlHY6r1dZZdZc" name="User Version">
    <mxGraphModel dx="1194" dy="602" grid="1" gridSize="10" guides="1" tooltips="1" connect="1" arrows="1" fold="1" page="1" pageScale="1" pageWidth="827" pageHeight="1169" math="0" shadow="0">
      <root>
        <mxCell id="0" />
        <mxCell id="1" parent="0" />
        <mxCell id="hmKulJ8iJjq9olE1y1c4-3" value="" style="edgeStyle=orthogonalEdgeStyle;rounded=0;orthogonalLoop=1;jettySize=auto;html=1;" parent="1" source="keP14_cEUTgFbbywV4Uj-1" target="hmKulJ8iJjq9olE1y1c4-2" edge="1">
          <mxGeometry relative="1" as="geometry" />
        </mxCell>
        <mxCell id="keP14_cEUTgFbbywV4Uj-1" value="Start&lt;br&gt;(User Version)&lt;br&gt;(return None)" style="rounded=1;whiteSpace=wrap;html=1;" parent="1" vertex="1">
          <mxGeometry x="80" y="20" width="120" height="60" as="geometry" />
        </mxCell>
        <mxCell id="hmKulJ8iJjq9olE1y1c4-5" value="" style="edgeStyle=orthogonalEdgeStyle;rounded=0;orthogonalLoop=1;jettySize=auto;html=1;entryX=0.5;entryY=0;entryDx=0;entryDy=0;entryPerimeter=0;" parent="1" source="hmKulJ8iJjq9olE1y1c4-2" target="4KAACVoxcUSxn9bKbL-m-1" edge="1">
          <mxGeometry relative="1" as="geometry">
            <mxPoint x="140" y="240" as="targetPoint" />
          </mxGeometry>
        </mxCell>
        <mxCell id="hmKulJ8iJjq9olE1y1c4-2" value="stage = 1" style="shape=parallelogram;perimeter=parallelogramPerimeter;whiteSpace=wrap;html=1;fixedSize=1;" parent="1" vertex="1">
          <mxGeometry x="40" y="140" width="200" height="60" as="geometry" />
        </mxCell>
        <mxCell id="4KAACVoxcUSxn9bKbL-m-1" value="If stage = 1" style="strokeWidth=2;html=1;shape=mxgraph.flowchart.decision;whiteSpace=wrap;" parent="1" vertex="1">
          <mxGeometry x="40" y="280" width="200" height="80" as="geometry" />
        </mxCell>
        <mxCell id="4KAACVoxcUSxn9bKbL-m-2" value="" style="endArrow=classic;html=1;rounded=0;exitX=1;exitY=0.5;exitDx=0;exitDy=0;exitPerimeter=0;entryX=1;entryY=1;entryDx=0;entryDy=0;" parent="1" source="4KAACVoxcUSxn9bKbL-m-1" target="4KAACVoxcUSxn9bKbL-m-3" edge="1">
          <mxGeometry width="50" height="50" relative="1" as="geometry">
            <mxPoint x="390" y="320" as="sourcePoint" />
            <mxPoint x="320" y="320" as="targetPoint" />
          </mxGeometry>
        </mxCell>
        <mxCell id="4KAACVoxcUSxn9bKbL-m-3" value="Yes" style="text;html=1;strokeColor=none;fillColor=none;align=center;verticalAlign=middle;whiteSpace=wrap;rounded=0;" parent="1" vertex="1">
          <mxGeometry x="240" y="290" width="60" height="30" as="geometry" />
        </mxCell>
        <mxCell id="4KAACVoxcUSxn9bKbL-m-4" value="" style="endArrow=classic;html=1;rounded=0;exitX=0.5;exitY=1;exitDx=0;exitDy=0;exitPerimeter=0;entryX=0.5;entryY=0;entryDx=0;entryDy=0;" parent="1" source="4KAACVoxcUSxn9bKbL-m-1" edge="1" target="M9PST7t6meDYjvWlfZaL-11">
          <mxGeometry width="50" height="50" relative="1" as="geometry">
            <mxPoint x="390" y="320" as="sourcePoint" />
            <mxPoint x="140" y="1000" as="targetPoint" />
          </mxGeometry>
        </mxCell>
        <mxCell id="4KAACVoxcUSxn9bKbL-m-5" value="No" style="text;html=1;strokeColor=none;fillColor=none;align=center;verticalAlign=middle;whiteSpace=wrap;rounded=0;" parent="1" vertex="1">
          <mxGeometry x="140" y="360" width="60" height="30" as="geometry" />
        </mxCell>
        <mxCell id="JJ_sG3BNEyajGusG4mpx-5" value="" style="edgeStyle=orthogonalEdgeStyle;rounded=0;orthogonalLoop=1;jettySize=auto;html=1;" parent="1" source="JJ_sG3BNEyajGusG4mpx-3" target="JJ_sG3BNEyajGusG4mpx-4" edge="1">
          <mxGeometry relative="1" as="geometry" />
        </mxCell>
        <mxCell id="JJ_sG3BNEyajGusG4mpx-3" value="display table of film, rating and time length" style="strokeWidth=2;html=1;shape=mxgraph.flowchart.display;whiteSpace=wrap;" parent="1" vertex="1">
          <mxGeometry x="320" y="390" width="140" height="80" as="geometry" />
        </mxCell>
        <mxCell id="JJ_sG3BNEyajGusG4mpx-7" value="" style="edgeStyle=orthogonalEdgeStyle;rounded=0;orthogonalLoop=1;jettySize=auto;html=1;" parent="1" source="JJ_sG3BNEyajGusG4mpx-4" target="JJ_sG3BNEyajGusG4mpx-6" edge="1">
          <mxGeometry relative="1" as="geometry" />
        </mxCell>
        <mxCell id="JJ_sG3BNEyajGusG4mpx-4" value="choose = count of film + 1" style="shape=parallelogram;html=1;strokeWidth=2;perimeter=parallelogramPerimeter;whiteSpace=wrap;rounded=1;arcSize=12;size=0.23;" parent="1" vertex="1">
          <mxGeometry x="290" y="510" width="200" height="80" as="geometry" />
        </mxCell>
        <mxCell id="JJ_sG3BNEyajGusG4mpx-9" value="" style="edgeStyle=orthogonalEdgeStyle;rounded=0;orthogonalLoop=1;jettySize=auto;html=1;" parent="1" source="JJ_sG3BNEyajGusG4mpx-6" target="JJ_sG3BNEyajGusG4mpx-8" edge="1">
          <mxGeometry relative="1" as="geometry" />
        </mxCell>
        <mxCell id="JJ_sG3BNEyajGusG4mpx-6" value="input int_input" style="shape=parallelogram;html=1;strokeWidth=2;perimeter=parallelogramPerimeter;whiteSpace=wrap;rounded=1;arcSize=12;size=0.23;" parent="1" vertex="1">
          <mxGeometry x="290" y="630" width="200" height="80" as="geometry" />
        </mxCell>
        <mxCell id="JJ_sG3BNEyajGusG4mpx-11" value="" style="edgeStyle=orthogonalEdgeStyle;rounded=0;orthogonalLoop=1;jettySize=auto;html=1;" parent="1" source="JJ_sG3BNEyajGusG4mpx-8" target="JJ_sG3BNEyajGusG4mpx-10" edge="1">
          <mxGeometry relative="1" as="geometry" />
        </mxCell>
        <mxCell id="JJ_sG3BNEyajGusG4mpx-18" value="" style="edgeStyle=orthogonalEdgeStyle;rounded=0;orthogonalLoop=1;jettySize=auto;html=1;" parent="1" source="JJ_sG3BNEyajGusG4mpx-8" target="JJ_sG3BNEyajGusG4mpx-17" edge="1">
          <mxGeometry relative="1" as="geometry" />
        </mxCell>
        <mxCell id="JJ_sG3BNEyajGusG4mpx-8" value="If int_input is not&lt;br&gt;integer or int_input = 0&lt;br&gt;or int_input &amp;gt; choose" style="strokeWidth=2;html=1;shape=mxgraph.flowchart.decision;whiteSpace=wrap;" parent="1" vertex="1">
          <mxGeometry x="290" y="750" width="200" height="90" as="geometry" />
        </mxCell>
        <mxCell id="JJ_sG3BNEyajGusG4mpx-10" value="display &quot;input incorrect&quot;" style="strokeWidth=2;html=1;shape=mxgraph.flowchart.display;whiteSpace=wrap;" parent="1" vertex="1">
          <mxGeometry x="550" y="765" width="100" height="60" as="geometry" />
        </mxCell>
        <mxCell id="JJ_sG3BNEyajGusG4mpx-13" value="" style="endArrow=classic;html=1;rounded=0;exitX=0.5;exitY=0;exitDx=0;exitDy=0;exitPerimeter=0;entryX=1;entryY=0.5;entryDx=0;entryDy=0;entryPerimeter=0;" parent="1" source="JJ_sG3BNEyajGusG4mpx-10" target="JJ_sG3BNEyajGusG4mpx-3" edge="1">
          <mxGeometry width="50" height="50" relative="1" as="geometry">
            <mxPoint x="410" y="670" as="sourcePoint" />
            <mxPoint x="590" y="590" as="targetPoint" />
            <Array as="points">
              <mxPoint x="600" y="430" />
            </Array>
          </mxGeometry>
        </mxCell>
        <mxCell id="JJ_sG3BNEyajGusG4mpx-17" value="If int_input = choose" style="strokeWidth=2;html=1;shape=mxgraph.flowchart.decision;whiteSpace=wrap;" parent="1" vertex="1">
          <mxGeometry x="290" y="880" width="200" height="80" as="geometry" />
        </mxCell>
        <mxCell id="_Fe4xNl5HOU15u2QHRXC-1" value="Yes" style="text;html=1;strokeColor=none;fillColor=none;align=center;verticalAlign=middle;whiteSpace=wrap;rounded=0;" parent="1" vertex="1">
          <mxGeometry x="490" y="765" width="60" height="30" as="geometry" />
        </mxCell>
        <mxCell id="_Fe4xNl5HOU15u2QHRXC-2" value="No" style="text;html=1;strokeColor=none;fillColor=none;align=center;verticalAlign=middle;whiteSpace=wrap;rounded=0;" parent="1" vertex="1">
          <mxGeometry x="390" y="840" width="60" height="30" as="geometry" />
        </mxCell>
        <mxCell id="_Fe4xNl5HOU15u2QHRXC-3" value="" style="endArrow=classic;html=1;rounded=0;exitX=1;exitY=0.5;exitDx=0;exitDy=0;exitPerimeter=0;" parent="1" source="JJ_sG3BNEyajGusG4mpx-17" edge="1">
          <mxGeometry width="50" height="50" relative="1" as="geometry">
            <mxPoint x="410" y="800" as="sourcePoint" />
            <mxPoint x="550" y="920" as="targetPoint" />
          </mxGeometry>
        </mxCell>
        <mxCell id="yVgEih11QgOu_9ApaXN7-1" value="return None&lt;br&gt;(Log out)" style="strokeWidth=2;html=1;shape=mxgraph.flowchart.terminator;whiteSpace=wrap;" parent="1" vertex="1">
          <mxGeometry x="550" y="890" width="160" height="60" as="geometry" />
        </mxCell>
        <mxCell id="yVgEih11QgOu_9ApaXN7-2" value="" style="endArrow=classic;html=1;rounded=0;exitX=0.5;exitY=1;exitDx=0;exitDy=0;exitPerimeter=0;" parent="1" source="JJ_sG3BNEyajGusG4mpx-17" edge="1">
          <mxGeometry width="50" height="50" relative="1" as="geometry">
            <mxPoint x="390" y="1000" as="sourcePoint" />
            <mxPoint x="390" y="1000" as="targetPoint" />
          </mxGeometry>
        </mxCell>
        <mxCell id="yVgEih11QgOu_9ApaXN7-3" value="Yes" style="text;html=1;strokeColor=none;fillColor=none;align=center;verticalAlign=middle;whiteSpace=wrap;rounded=0;" parent="1" vertex="1">
          <mxGeometry x="490" y="890" width="60" height="30" as="geometry" />
        </mxCell>
        <mxCell id="v6psPL8xud7T03IMBfN6-2" value="" style="edgeStyle=orthogonalEdgeStyle;rounded=0;orthogonalLoop=1;jettySize=auto;html=1;" parent="1" source="v6psPL8xud7T03IMBfN6-1" target="JJ_sG3BNEyajGusG4mpx-3" edge="1">
          <mxGeometry relative="1" as="geometry" />
        </mxCell>
        <mxCell id="v6psPL8xud7T03IMBfN6-1" value="Read films data in Film folder" style="rounded=0;whiteSpace=wrap;html=1;" parent="1" vertex="1">
          <mxGeometry x="300" y="290" width="180" height="60" as="geometry" />
        </mxCell>
        <mxCell id="M9PST7t6meDYjvWlfZaL-1" value="No" style="text;html=1;strokeColor=none;fillColor=none;align=center;verticalAlign=middle;whiteSpace=wrap;rounded=0;" parent="1" vertex="1">
          <mxGeometry x="390" y="960" width="60" height="30" as="geometry" />
        </mxCell>
        <mxCell id="M9PST7t6meDYjvWlfZaL-4" value="" style="edgeStyle=orthogonalEdgeStyle;rounded=0;orthogonalLoop=1;jettySize=auto;html=1;" parent="1" source="M9PST7t6meDYjvWlfZaL-2" target="M9PST7t6meDYjvWlfZaL-3" edge="1">
          <mxGeometry relative="1" as="geometry" />
        </mxCell>
        <mxCell id="M9PST7t6meDYjvWlfZaL-2" value="stage = 2" style="shape=parallelogram;html=1;strokeWidth=2;perimeter=parallelogramPerimeter;whiteSpace=wrap;rounded=1;arcSize=12;size=0.23;" parent="1" vertex="1">
          <mxGeometry x="290" y="1000" width="200" height="60" as="geometry" />
        </mxCell>
        <mxCell id="M9PST7t6meDYjvWlfZaL-3" value="filmname = list of &lt;br&gt;filmname [int_input]" style="shape=parallelogram;html=1;strokeWidth=2;perimeter=parallelogramPerimeter;whiteSpace=wrap;rounded=1;arcSize=12;size=0.23;" parent="1" vertex="1">
          <mxGeometry x="290" y="1100" width="200" height="60" as="geometry" />
        </mxCell>
        <mxCell id="M9PST7t6meDYjvWlfZaL-6" value="" style="endArrow=none;html=1;rounded=0;exitX=0.5;exitY=0;exitDx=0;exitDy=0;" parent="1" source="M9PST7t6meDYjvWlfZaL-17" edge="1">
          <mxGeometry width="50" height="50" relative="1" as="geometry">
            <mxPoint x="390" y="1000" as="sourcePoint" />
            <mxPoint x="200" y="240" as="targetPoint" />
            <Array as="points">
              <mxPoint x="750" y="1000" />
              <mxPoint x="750" y="920" />
              <mxPoint x="750" y="240" />
            </Array>
          </mxGeometry>
        </mxCell>
        <mxCell id="M9PST7t6meDYjvWlfZaL-7" value="" style="endArrow=classic;html=1;rounded=0;" parent="1" edge="1">
          <mxGeometry width="50" height="50" relative="1" as="geometry">
            <mxPoint x="200" y="240" as="sourcePoint" />
            <mxPoint x="140" y="240" as="targetPoint" />
          </mxGeometry>
        </mxCell>
        <mxCell id="M9PST7t6meDYjvWlfZaL-11" value="A" style="ellipse;whiteSpace=wrap;html=1;aspect=fixed;" parent="1" vertex="1">
          <mxGeometry x="100" y="400" width="80" height="80" as="geometry" />
        </mxCell>
        <mxCell id="M9PST7t6meDYjvWlfZaL-12" value="A" style="ellipse;whiteSpace=wrap;html=1;aspect=fixed;" parent="1" vertex="1">
          <mxGeometry x="100" y="1200" width="80" height="80" as="geometry" />
        </mxCell>
        <mxCell id="M9PST7t6meDYjvWlfZaL-13" value="" style="endArrow=classic;html=1;rounded=0;exitX=0.5;exitY=1;exitDx=0;exitDy=0;" parent="1" source="M9PST7t6meDYjvWlfZaL-12" edge="1">
          <mxGeometry width="50" height="50" relative="1" as="geometry">
            <mxPoint x="450" y="1510" as="sourcePoint" />
            <mxPoint x="140" y="1320" as="targetPoint" />
          </mxGeometry>
        </mxCell>
        <mxCell id="M9PST7t6meDYjvWlfZaL-14" value="If stage = 2" style="strokeWidth=2;html=1;shape=mxgraph.flowchart.decision;whiteSpace=wrap;" parent="1" vertex="1">
          <mxGeometry x="60" y="1320" width="160" height="80" as="geometry" />
        </mxCell>
        <mxCell id="M9PST7t6meDYjvWlfZaL-15" value="" style="endArrow=classic;html=1;rounded=0;exitX=1;exitY=0.5;exitDx=0;exitDy=0;exitPerimeter=0;entryX=1;entryY=1;entryDx=0;entryDy=0;" parent="1" source="M9PST7t6meDYjvWlfZaL-14" target="M9PST7t6meDYjvWlfZaL-16" edge="1">
          <mxGeometry width="50" height="50" relative="1" as="geometry">
            <mxPoint x="410" y="1510" as="sourcePoint" />
            <mxPoint x="300" y="1360" as="targetPoint" />
          </mxGeometry>
        </mxCell>
        <mxCell id="M9PST7t6meDYjvWlfZaL-16" value="Yes" style="text;html=1;strokeColor=none;fillColor=none;align=center;verticalAlign=middle;whiteSpace=wrap;rounded=0;" parent="1" vertex="1">
          <mxGeometry x="220" y="1330" width="60" height="30" as="geometry" />
        </mxCell>
        <mxCell id="M9PST7t6meDYjvWlfZaL-17" value="while loop&lt;br&gt;(User Version)" style="ellipse;whiteSpace=wrap;html=1;aspect=fixed;" parent="1" vertex="1">
          <mxGeometry x="700" y="1030" width="100" height="100" as="geometry" />
        </mxCell>
        <mxCell id="M9PST7t6meDYjvWlfZaL-22" value="" style="edgeStyle=orthogonalEdgeStyle;rounded=0;orthogonalLoop=1;jettySize=auto;html=1;" parent="1" source="M9PST7t6meDYjvWlfZaL-20" target="M9PST7t6meDYjvWlfZaL-21" edge="1">
          <mxGeometry relative="1" as="geometry" />
        </mxCell>
        <mxCell id="M9PST7t6meDYjvWlfZaL-20" value="Read films data of the film in &lt;br&gt;Film folder" style="rounded=0;whiteSpace=wrap;html=1;" parent="1" vertex="1">
          <mxGeometry x="280" y="1330" width="180" height="60" as="geometry" />
        </mxCell>
        <mxCell id="yKaX4ZrRgAqeY49OefFG-23" value="" style="edgeStyle=orthogonalEdgeStyle;rounded=0;orthogonalLoop=1;jettySize=auto;html=1;" edge="1" parent="1" source="M9PST7t6meDYjvWlfZaL-21" target="yKaX4ZrRgAqeY49OefFG-2">
          <mxGeometry relative="1" as="geometry" />
        </mxCell>
        <mxCell id="M9PST7t6meDYjvWlfZaL-21" value="display table of dimension, language and price" style="strokeWidth=2;html=1;shape=mxgraph.flowchart.display;whiteSpace=wrap;" parent="1" vertex="1">
          <mxGeometry x="580" y="1320" width="180" height="80" as="geometry" />
        </mxCell>
        <mxCell id="yKaX4ZrRgAqeY49OefFG-2" value="choose = count of &lt;br&gt;dimensions * count of &lt;br&gt;languages + 1" style="shape=parallelogram;html=1;strokeWidth=2;perimeter=parallelogramPerimeter;whiteSpace=wrap;rounded=1;arcSize=12;size=0.23;" vertex="1" parent="1">
          <mxGeometry x="570" y="1440" width="200" height="80" as="geometry" />
        </mxCell>
        <mxCell id="yKaX4ZrRgAqeY49OefFG-43" value="" style="edgeStyle=orthogonalEdgeStyle;rounded=0;orthogonalLoop=1;jettySize=auto;html=1;" edge="1" parent="1" source="yKaX4ZrRgAqeY49OefFG-4" target="yKaX4ZrRgAqeY49OefFG-7">
          <mxGeometry relative="1" as="geometry" />
        </mxCell>
        <mxCell id="yKaX4ZrRgAqeY49OefFG-4" value="input int_input&lt;br&gt;x = int_input" style="shape=parallelogram;html=1;strokeWidth=2;perimeter=parallelogramPerimeter;whiteSpace=wrap;rounded=1;arcSize=12;size=0.23;" vertex="1" parent="1">
          <mxGeometry x="270" y="1440" width="200" height="80" as="geometry" />
        </mxCell>
        <mxCell id="yKaX4ZrRgAqeY49OefFG-5" value="" style="edgeStyle=orthogonalEdgeStyle;rounded=0;orthogonalLoop=1;jettySize=auto;html=1;exitX=1;exitY=0.5;exitDx=0;exitDy=0;exitPerimeter=0;" edge="1" parent="1" source="yKaX4ZrRgAqeY49OefFG-7" target="yKaX4ZrRgAqeY49OefFG-8">
          <mxGeometry relative="1" as="geometry" />
        </mxCell>
        <mxCell id="yKaX4ZrRgAqeY49OefFG-6" value="" style="edgeStyle=orthogonalEdgeStyle;rounded=0;orthogonalLoop=1;jettySize=auto;html=1;" edge="1" parent="1" source="yKaX4ZrRgAqeY49OefFG-7" target="yKaX4ZrRgAqeY49OefFG-10">
          <mxGeometry relative="1" as="geometry" />
        </mxCell>
        <mxCell id="yKaX4ZrRgAqeY49OefFG-7" value="If int_input is not&lt;br&gt;integer or int_input = 0&lt;br&gt;or int_input &amp;gt; choose" style="strokeWidth=2;html=1;shape=mxgraph.flowchart.decision;whiteSpace=wrap;" vertex="1" parent="1">
          <mxGeometry x="270" y="1560" width="200" height="90" as="geometry" />
        </mxCell>
        <mxCell id="yKaX4ZrRgAqeY49OefFG-8" value="display &quot;input incorrect&quot;" style="strokeWidth=2;html=1;shape=mxgraph.flowchart.display;whiteSpace=wrap;" vertex="1" parent="1">
          <mxGeometry x="530" y="1575" width="100" height="60" as="geometry" />
        </mxCell>
        <mxCell id="yKaX4ZrRgAqeY49OefFG-10" value="If int_input = choose" style="strokeWidth=2;html=1;shape=mxgraph.flowchart.decision;whiteSpace=wrap;" vertex="1" parent="1">
          <mxGeometry x="270" y="1700" width="200" height="80" as="geometry" />
        </mxCell>
        <mxCell id="yKaX4ZrRgAqeY49OefFG-11" value="Yes" style="text;html=1;strokeColor=none;fillColor=none;align=center;verticalAlign=middle;whiteSpace=wrap;rounded=0;" vertex="1" parent="1">
          <mxGeometry x="470" y="1575" width="60" height="30" as="geometry" />
        </mxCell>
        <mxCell id="yKaX4ZrRgAqeY49OefFG-12" value="No" style="text;html=1;strokeColor=none;fillColor=none;align=center;verticalAlign=middle;whiteSpace=wrap;rounded=0;" vertex="1" parent="1">
          <mxGeometry x="370" y="1780" width="60" height="30" as="geometry" />
        </mxCell>
        <mxCell id="yKaX4ZrRgAqeY49OefFG-13" value="" style="endArrow=classic;html=1;rounded=0;exitX=1;exitY=0.5;exitDx=0;exitDy=0;exitPerimeter=0;entryX=0;entryY=0.5;entryDx=0;entryDy=0;" edge="1" parent="1" source="yKaX4ZrRgAqeY49OefFG-10" target="yKaX4ZrRgAqeY49OefFG-27">
          <mxGeometry width="50" height="50" relative="1" as="geometry">
            <mxPoint x="150" y="1850" as="sourcePoint" />
            <mxPoint x="290" y="1970" as="targetPoint" />
          </mxGeometry>
        </mxCell>
        <mxCell id="yKaX4ZrRgAqeY49OefFG-15" value="" style="endArrow=classic;html=1;rounded=0;exitX=0.5;exitY=1;exitDx=0;exitDy=0;exitPerimeter=0;entryX=0.5;entryY=0;entryDx=0;entryDy=0;" edge="1" parent="1" source="yKaX4ZrRgAqeY49OefFG-10" target="yKaX4ZrRgAqeY49OefFG-19">
          <mxGeometry width="50" height="50" relative="1" as="geometry">
            <mxPoint x="130" y="2050" as="sourcePoint" />
            <mxPoint x="130" y="2050" as="targetPoint" />
          </mxGeometry>
        </mxCell>
        <mxCell id="yKaX4ZrRgAqeY49OefFG-16" value="Yes" style="text;html=1;strokeColor=none;fillColor=none;align=center;verticalAlign=middle;whiteSpace=wrap;rounded=0;" vertex="1" parent="1">
          <mxGeometry x="470" y="1710" width="60" height="30" as="geometry" />
        </mxCell>
        <mxCell id="yKaX4ZrRgAqeY49OefFG-17" value="No" style="text;html=1;strokeColor=none;fillColor=none;align=center;verticalAlign=middle;whiteSpace=wrap;rounded=0;" vertex="1" parent="1">
          <mxGeometry x="370" y="1650" width="60" height="30" as="geometry" />
        </mxCell>
        <mxCell id="yKaX4ZrRgAqeY49OefFG-18" value="" style="edgeStyle=orthogonalEdgeStyle;rounded=0;orthogonalLoop=1;jettySize=auto;html=1;exitX=0.5;exitY=1;exitDx=0;exitDy=0;entryX=0.5;entryY=0;entryDx=0;entryDy=0;entryPerimeter=0;" edge="1" parent="1" source="yKaX4ZrRgAqeY49OefFG-19" target="yKaX4ZrRgAqeY49OefFG-28">
          <mxGeometry relative="1" as="geometry">
            <mxPoint x="130" y="2150" as="targetPoint" />
          </mxGeometry>
        </mxCell>
        <mxCell id="yKaX4ZrRgAqeY49OefFG-19" value="stage = 3" style="shape=parallelogram;html=1;strokeWidth=2;perimeter=parallelogramPerimeter;whiteSpace=wrap;rounded=1;arcSize=12;size=0.23;" vertex="1" parent="1">
          <mxGeometry x="270" y="1830" width="200" height="60" as="geometry" />
        </mxCell>
        <mxCell id="yKaX4ZrRgAqeY49OefFG-24" value="" style="endArrow=classic;html=1;rounded=0;exitX=0.5;exitY=1;exitDx=0;exitDy=0;exitPerimeter=0;entryX=0.5;entryY=0;entryDx=0;entryDy=0;" edge="1" parent="1" target="yKaX4ZrRgAqeY49OefFG-26">
          <mxGeometry width="50" height="50" relative="1" as="geometry">
            <mxPoint x="140" y="1400" as="sourcePoint" />
            <mxPoint x="140" y="2120" as="targetPoint" />
          </mxGeometry>
        </mxCell>
        <mxCell id="yKaX4ZrRgAqeY49OefFG-25" value="No" style="text;html=1;strokeColor=none;fillColor=none;align=center;verticalAlign=middle;whiteSpace=wrap;rounded=0;" vertex="1" parent="1">
          <mxGeometry x="140" y="1400" width="60" height="30" as="geometry" />
        </mxCell>
        <mxCell id="yKaX4ZrRgAqeY49OefFG-26" value="B" style="ellipse;whiteSpace=wrap;html=1;aspect=fixed;" vertex="1" parent="1">
          <mxGeometry x="100" y="1440" width="80" height="80" as="geometry" />
        </mxCell>
        <mxCell id="yKaX4ZrRgAqeY49OefFG-27" value="stage = 1" style="shape=parallelogram;html=1;strokeWidth=2;perimeter=parallelogramPerimeter;whiteSpace=wrap;rounded=1;arcSize=12;size=0.23;" vertex="1" parent="1">
          <mxGeometry x="510" y="1710" width="180" height="60" as="geometry" />
        </mxCell>
        <mxCell id="yKaX4ZrRgAqeY49OefFG-28" value="If&amp;nbsp; x &amp;gt; count of language" style="strokeWidth=2;html=1;shape=mxgraph.flowchart.decision;whiteSpace=wrap;" vertex="1" parent="1">
          <mxGeometry x="270" y="1940" width="200" height="90" as="geometry" />
        </mxCell>
        <mxCell id="yKaX4ZrRgAqeY49OefFG-29" value="" style="endArrow=classic;html=1;rounded=0;exitX=0;exitY=0.5;exitDx=0;exitDy=0;entryX=1;entryY=0.5;entryDx=0;entryDy=0;" edge="1" parent="1" source="yKaX4ZrRgAqeY49OefFG-2" target="yKaX4ZrRgAqeY49OefFG-4">
          <mxGeometry width="50" height="50" relative="1" as="geometry">
            <mxPoint x="390" y="1730" as="sourcePoint" />
            <mxPoint x="440" y="1680" as="targetPoint" />
            <Array as="points">
              <mxPoint x="560" y="1480" />
              <mxPoint x="500" y="1480" />
            </Array>
          </mxGeometry>
        </mxCell>
        <mxCell id="yKaX4ZrRgAqeY49OefFG-30" value="" style="endArrow=classic;html=1;rounded=0;exitX=1;exitY=0.5;exitDx=0;exitDy=0;exitPerimeter=0;entryX=0;entryY=0.5;entryDx=0;entryDy=0;" edge="1" parent="1" source="yKaX4ZrRgAqeY49OefFG-28" target="yKaX4ZrRgAqeY49OefFG-32">
          <mxGeometry width="50" height="50" relative="1" as="geometry">
            <mxPoint x="390" y="2170" as="sourcePoint" />
            <mxPoint x="300" y="2195" as="targetPoint" />
          </mxGeometry>
        </mxCell>
        <mxCell id="yKaX4ZrRgAqeY49OefFG-31" value="Yes" style="text;html=1;strokeColor=none;fillColor=none;align=center;verticalAlign=middle;whiteSpace=wrap;rounded=0;" vertex="1" parent="1">
          <mxGeometry x="470" y="1955" width="60" height="30" as="geometry" />
        </mxCell>
        <mxCell id="yKaX4ZrRgAqeY49OefFG-47" value="" style="edgeStyle=orthogonalEdgeStyle;rounded=0;orthogonalLoop=1;jettySize=auto;html=1;" edge="1" parent="1" source="yKaX4ZrRgAqeY49OefFG-32">
          <mxGeometry relative="1" as="geometry">
            <mxPoint x="370" y="1910" as="targetPoint" />
            <Array as="points">
              <mxPoint x="610" y="1910" />
            </Array>
          </mxGeometry>
        </mxCell>
        <mxCell id="yKaX4ZrRgAqeY49OefFG-32" value="x = x - count of dimension" style="shape=parallelogram;html=1;strokeWidth=2;perimeter=parallelogramPerimeter;whiteSpace=wrap;rounded=1;arcSize=12;size=0.23;" vertex="1" parent="1">
          <mxGeometry x="510" y="1955" width="200" height="60" as="geometry" />
        </mxCell>
        <mxCell id="yKaX4ZrRgAqeY49OefFG-34" value="" style="endArrow=classic;html=1;rounded=0;exitX=1;exitY=0.5;exitDx=0;exitDy=0;" edge="1" parent="1" source="M9PST7t6meDYjvWlfZaL-3">
          <mxGeometry width="50" height="50" relative="1" as="geometry">
            <mxPoint x="650" y="1100" as="sourcePoint" />
            <mxPoint x="750" y="1000" as="targetPoint" />
            <Array as="points">
              <mxPoint x="560" y="1130" />
              <mxPoint x="560" y="1000" />
            </Array>
          </mxGeometry>
        </mxCell>
        <mxCell id="yKaX4ZrRgAqeY49OefFG-35" value="" style="endArrow=classic;html=1;rounded=0;exitX=0.5;exitY=1;exitDx=0;exitDy=0;exitPerimeter=0;entryX=0.5;entryY=0;entryDx=0;entryDy=0;" edge="1" parent="1" source="yKaX4ZrRgAqeY49OefFG-28" target="yKaX4ZrRgAqeY49OefFG-37">
          <mxGeometry width="50" height="50" relative="1" as="geometry">
            <mxPoint x="390" y="2120" as="sourcePoint" />
            <mxPoint x="200" y="2270" as="targetPoint" />
            <Array as="points" />
          </mxGeometry>
        </mxCell>
        <mxCell id="yKaX4ZrRgAqeY49OefFG-36" value="No" style="text;html=1;strokeColor=none;fillColor=none;align=center;verticalAlign=middle;whiteSpace=wrap;rounded=0;" vertex="1" parent="1">
          <mxGeometry x="370" y="2030" width="60" height="30" as="geometry" />
        </mxCell>
        <mxCell id="yKaX4ZrRgAqeY49OefFG-37" value="language = list of &lt;br&gt;language [x]" style="shape=parallelogram;html=1;strokeWidth=2;perimeter=parallelogramPerimeter;whiteSpace=wrap;rounded=1;arcSize=12;size=0.23;" vertex="1" parent="1">
          <mxGeometry x="270" y="2080" width="200" height="60" as="geometry" />
        </mxCell>
        <mxCell id="yKaX4ZrRgAqeY49OefFG-38" value="while loop&lt;br&gt;(User Version)" style="ellipse;whiteSpace=wrap;html=1;aspect=fixed;" vertex="1" parent="1">
          <mxGeometry x="690" y="2180" width="100" height="100" as="geometry" />
        </mxCell>
        <mxCell id="yKaX4ZrRgAqeY49OefFG-39" value="" style="endArrow=classic;html=1;rounded=0;exitX=0.5;exitY=1;exitDx=0;exitDy=0;entryX=0.5;entryY=0;entryDx=0;entryDy=0;" edge="1" parent="1" source="yKaX4ZrRgAqeY49OefFG-37" target="yKaX4ZrRgAqeY49OefFG-41">
          <mxGeometry width="50" height="50" relative="1" as="geometry">
            <mxPoint x="410" y="2190" as="sourcePoint" />
            <mxPoint x="420" y="2270" as="targetPoint" />
          </mxGeometry>
        </mxCell>
        <mxCell id="yKaX4ZrRgAqeY49OefFG-41" value="dimension = list of &lt;br&gt;dimension [(int_input - x) / &lt;br&gt;count of language]" style="shape=parallelogram;html=1;strokeWidth=2;perimeter=parallelogramPerimeter;whiteSpace=wrap;rounded=1;arcSize=12;size=0.23;" vertex="1" parent="1">
          <mxGeometry x="270" y="2200" width="200" height="60" as="geometry" />
        </mxCell>
        <mxCell id="yKaX4ZrRgAqeY49OefFG-42" value="" style="endArrow=classic;html=1;rounded=0;exitX=1;exitY=0.5;exitDx=0;exitDy=0;entryX=0;entryY=0.5;entryDx=0;entryDy=0;" edge="1" parent="1" source="yKaX4ZrRgAqeY49OefFG-41" target="yKaX4ZrRgAqeY49OefFG-38">
          <mxGeometry width="50" height="50" relative="1" as="geometry">
            <mxPoint x="400" y="2240" as="sourcePoint" />
            <mxPoint x="450" y="2190" as="targetPoint" />
          </mxGeometry>
        </mxCell>
        <mxCell id="yKaX4ZrRgAqeY49OefFG-45" value="" style="endArrow=classic;html=1;rounded=0;exitX=1;exitY=0.5;exitDx=0;exitDy=0;exitPerimeter=0;entryX=1;entryY=0.5;entryDx=0;entryDy=0;entryPerimeter=0;" edge="1" parent="1" source="yKaX4ZrRgAqeY49OefFG-8" target="M9PST7t6meDYjvWlfZaL-21">
          <mxGeometry width="50" height="50" relative="1" as="geometry">
            <mxPoint x="400" y="1740" as="sourcePoint" />
            <mxPoint x="520" y="1480" as="targetPoint" />
            <Array as="points">
              <mxPoint x="790" y="1605" />
              <mxPoint x="790" y="1360" />
            </Array>
          </mxGeometry>
        </mxCell>
        <mxCell id="yKaX4ZrRgAqeY49OefFG-48" value="" style="endArrow=classic;html=1;rounded=0;exitX=1;exitY=0.5;exitDx=0;exitDy=0;entryX=0.5;entryY=0;entryDx=0;entryDy=0;" edge="1" parent="1" source="yKaX4ZrRgAqeY49OefFG-27" target="yKaX4ZrRgAqeY49OefFG-38">
          <mxGeometry width="50" height="50" relative="1" as="geometry">
            <mxPoint x="400" y="1940" as="sourcePoint" />
            <mxPoint x="450" y="1890" as="targetPoint" />
            <Array as="points">
              <mxPoint x="740" y="1740" />
            </Array>
          </mxGeometry>
        </mxCell>
        <mxCell id="yKaX4ZrRgAqeY49OefFG-49" value="B" style="ellipse;whiteSpace=wrap;html=1;aspect=fixed;" vertex="1" parent="1">
          <mxGeometry x="50" y="2350" width="80" height="80" as="geometry" />
        </mxCell>
        <mxCell id="yKaX4ZrRgAqeY49OefFG-50" value="" style="endArrow=classic;html=1;rounded=0;exitX=0.5;exitY=1;exitDx=0;exitDy=0;" edge="1" parent="1" source="yKaX4ZrRgAqeY49OefFG-49">
          <mxGeometry width="50" height="50" relative="1" as="geometry">
            <mxPoint x="400" y="2660" as="sourcePoint" />
            <mxPoint x="90" y="2470" as="targetPoint" />
          </mxGeometry>
        </mxCell>
        <mxCell id="yKaX4ZrRgAqeY49OefFG-51" value="If stage = 3" style="strokeWidth=2;html=1;shape=mxgraph.flowchart.decision;whiteSpace=wrap;" vertex="1" parent="1">
          <mxGeometry x="10" y="2470" width="160" height="80" as="geometry" />
        </mxCell>
        <mxCell id="yKaX4ZrRgAqeY49OefFG-52" value="" style="endArrow=classic;html=1;rounded=0;exitX=1;exitY=0.5;exitDx=0;exitDy=0;exitPerimeter=0;entryX=1;entryY=1;entryDx=0;entryDy=0;" edge="1" parent="1" source="yKaX4ZrRgAqeY49OefFG-51" target="yKaX4ZrRgAqeY49OefFG-53">
          <mxGeometry width="50" height="50" relative="1" as="geometry">
            <mxPoint x="360" y="2660" as="sourcePoint" />
            <mxPoint x="250" y="2510" as="targetPoint" />
          </mxGeometry>
        </mxCell>
        <mxCell id="yKaX4ZrRgAqeY49OefFG-53" value="Yes" style="text;html=1;strokeColor=none;fillColor=none;align=center;verticalAlign=middle;whiteSpace=wrap;rounded=0;" vertex="1" parent="1">
          <mxGeometry x="170" y="2480" width="60" height="30" as="geometry" />
        </mxCell>
        <mxCell id="yKaX4ZrRgAqeY49OefFG-54" value="" style="endArrow=classic;html=1;rounded=0;exitX=0.5;exitY=1;exitDx=0;exitDy=0;exitPerimeter=0;entryX=0.5;entryY=0;entryDx=0;entryDy=0;" edge="1" parent="1" target="yKaX4ZrRgAqeY49OefFG-56">
          <mxGeometry width="50" height="50" relative="1" as="geometry">
            <mxPoint x="90" y="2550" as="sourcePoint" />
            <mxPoint x="90" y="3270" as="targetPoint" />
          </mxGeometry>
        </mxCell>
        <mxCell id="yKaX4ZrRgAqeY49OefFG-55" value="No" style="text;html=1;strokeColor=none;fillColor=none;align=center;verticalAlign=middle;whiteSpace=wrap;rounded=0;" vertex="1" parent="1">
          <mxGeometry x="90" y="2550" width="60" height="30" as="geometry" />
        </mxCell>
        <mxCell id="yKaX4ZrRgAqeY49OefFG-56" value="C" style="ellipse;whiteSpace=wrap;html=1;aspect=fixed;" vertex="1" parent="1">
          <mxGeometry x="50" y="3110" width="80" height="80" as="geometry" />
        </mxCell>
        <mxCell id="yKaX4ZrRgAqeY49OefFG-57" value="" style="edgeStyle=orthogonalEdgeStyle;rounded=0;orthogonalLoop=1;jettySize=auto;html=1;" edge="1" parent="1" source="yKaX4ZrRgAqeY49OefFG-58" target="yKaX4ZrRgAqeY49OefFG-59">
          <mxGeometry relative="1" as="geometry" />
        </mxCell>
        <mxCell id="yKaX4ZrRgAqeY49OefFG-58" value="Read showings data in Showing folder which fit film, dimension and language" style="rounded=0;whiteSpace=wrap;html=1;" vertex="1" parent="1">
          <mxGeometry x="230" y="2480" width="180" height="60" as="geometry" />
        </mxCell>
        <mxCell id="yKaX4ZrRgAqeY49OefFG-59" value="display table of &lt;br&gt;showings, start time of &lt;br&gt;showings, end time of showings, &lt;br&gt;house of showings, available &lt;br&gt;seats of showings and total &lt;br&gt;seats of showings" style="strokeWidth=2;html=1;shape=mxgraph.flowchart.display;whiteSpace=wrap;" vertex="1" parent="1">
          <mxGeometry x="530" y="2450" width="210" height="120" as="geometry" />
        </mxCell>
        <mxCell id="yKaX4ZrRgAqeY49OefFG-60" value="" style="edgeStyle=orthogonalEdgeStyle;rounded=0;orthogonalLoop=1;jettySize=auto;html=1;exitX=0.5;exitY=1;exitDx=0;exitDy=0;exitPerimeter=0;" edge="1" parent="1" target="yKaX4ZrRgAqeY49OefFG-61" source="yKaX4ZrRgAqeY49OefFG-59">
          <mxGeometry relative="1" as="geometry">
            <mxPoint x="630" y="2550" as="sourcePoint" />
          </mxGeometry>
        </mxCell>
        <mxCell id="yKaX4ZrRgAqeY49OefFG-61" value="choose = count of &lt;br&gt;showings + 1" style="shape=parallelogram;html=1;strokeWidth=2;perimeter=parallelogramPerimeter;whiteSpace=wrap;rounded=1;arcSize=12;size=0.23;" vertex="1" parent="1">
          <mxGeometry x="535" y="2630" width="200" height="80" as="geometry" />
        </mxCell>
        <mxCell id="yKaX4ZrRgAqeY49OefFG-62" value="" style="edgeStyle=orthogonalEdgeStyle;rounded=0;orthogonalLoop=1;jettySize=auto;html=1;" edge="1" parent="1" source="yKaX4ZrRgAqeY49OefFG-63" target="yKaX4ZrRgAqeY49OefFG-66">
          <mxGeometry relative="1" as="geometry" />
        </mxCell>
        <mxCell id="yKaX4ZrRgAqeY49OefFG-63" value="input int_input" style="shape=parallelogram;html=1;strokeWidth=2;perimeter=parallelogramPerimeter;whiteSpace=wrap;rounded=1;arcSize=12;size=0.23;" vertex="1" parent="1">
          <mxGeometry x="220" y="2630" width="200" height="80" as="geometry" />
        </mxCell>
        <mxCell id="yKaX4ZrRgAqeY49OefFG-64" value="" style="edgeStyle=orthogonalEdgeStyle;rounded=0;orthogonalLoop=1;jettySize=auto;html=1;exitX=1;exitY=0.5;exitDx=0;exitDy=0;exitPerimeter=0;" edge="1" parent="1" source="yKaX4ZrRgAqeY49OefFG-66" target="yKaX4ZrRgAqeY49OefFG-67">
          <mxGeometry relative="1" as="geometry" />
        </mxCell>
        <mxCell id="yKaX4ZrRgAqeY49OefFG-65" value="" style="edgeStyle=orthogonalEdgeStyle;rounded=0;orthogonalLoop=1;jettySize=auto;html=1;" edge="1" parent="1" source="yKaX4ZrRgAqeY49OefFG-66">
          <mxGeometry relative="1" as="geometry">
            <mxPoint x="320" y="2890" as="targetPoint" />
          </mxGeometry>
        </mxCell>
        <mxCell id="yKaX4ZrRgAqeY49OefFG-66" value="If int_input is not&lt;br&gt;integer or int_input = 0&lt;br&gt;or int_input &amp;gt; choose" style="strokeWidth=2;html=1;shape=mxgraph.flowchart.decision;whiteSpace=wrap;" vertex="1" parent="1">
          <mxGeometry x="220" y="2750" width="200" height="90" as="geometry" />
        </mxCell>
        <mxCell id="yKaX4ZrRgAqeY49OefFG-67" value="display &quot;input incorrect&quot;" style="strokeWidth=2;html=1;shape=mxgraph.flowchart.display;whiteSpace=wrap;" vertex="1" parent="1">
          <mxGeometry x="480" y="2765" width="100" height="60" as="geometry" />
        </mxCell>
        <mxCell id="yKaX4ZrRgAqeY49OefFG-68" value="Yes" style="text;html=1;strokeColor=none;fillColor=none;align=center;verticalAlign=middle;whiteSpace=wrap;rounded=0;" vertex="1" parent="1">
          <mxGeometry x="420" y="2765" width="60" height="30" as="geometry" />
        </mxCell>
        <mxCell id="yKaX4ZrRgAqeY49OefFG-69" value="No" style="text;html=1;strokeColor=none;fillColor=none;align=center;verticalAlign=middle;whiteSpace=wrap;rounded=0;" vertex="1" parent="1">
          <mxGeometry x="320" y="2840" width="60" height="30" as="geometry" />
        </mxCell>
        <mxCell id="yKaX4ZrRgAqeY49OefFG-70" value="" style="endArrow=classic;html=1;rounded=0;exitX=0;exitY=0.5;exitDx=0;exitDy=0;entryX=1;entryY=0.5;entryDx=0;entryDy=0;" edge="1" parent="1" source="yKaX4ZrRgAqeY49OefFG-61" target="yKaX4ZrRgAqeY49OefFG-63">
          <mxGeometry width="50" height="50" relative="1" as="geometry">
            <mxPoint x="340" y="2920" as="sourcePoint" />
            <mxPoint x="390" y="2870" as="targetPoint" />
            <Array as="points">
              <mxPoint x="510" y="2670" />
              <mxPoint x="450" y="2670" />
            </Array>
          </mxGeometry>
        </mxCell>
        <mxCell id="yKaX4ZrRgAqeY49OefFG-72" value="" style="endArrow=classic;html=1;rounded=0;exitX=1;exitY=0.5;exitDx=0;exitDy=0;exitPerimeter=0;entryX=1;entryY=0.5;entryDx=0;entryDy=0;entryPerimeter=0;" edge="1" parent="1" source="yKaX4ZrRgAqeY49OefFG-67" target="yKaX4ZrRgAqeY49OefFG-59">
          <mxGeometry width="50" height="50" relative="1" as="geometry">
            <mxPoint x="400" y="2840" as="sourcePoint" />
            <mxPoint x="450" y="2790" as="targetPoint" />
            <Array as="points">
              <mxPoint x="780" y="2795" />
              <mxPoint x="780" y="2510" />
            </Array>
          </mxGeometry>
        </mxCell>
        <mxCell id="yKaX4ZrRgAqeY49OefFG-73" value="If int_input = choose" style="strokeWidth=2;html=1;shape=mxgraph.flowchart.decision;whiteSpace=wrap;" vertex="1" parent="1">
          <mxGeometry x="220" y="2890" width="200" height="80" as="geometry" />
        </mxCell>
        <mxCell id="yKaX4ZrRgAqeY49OefFG-74" value="No" style="text;html=1;strokeColor=none;fillColor=none;align=center;verticalAlign=middle;whiteSpace=wrap;rounded=0;" vertex="1" parent="1">
          <mxGeometry x="320" y="2970" width="60" height="30" as="geometry" />
        </mxCell>
        <mxCell id="yKaX4ZrRgAqeY49OefFG-75" value="" style="endArrow=classic;html=1;rounded=0;exitX=1;exitY=0.5;exitDx=0;exitDy=0;exitPerimeter=0;entryX=0;entryY=0.5;entryDx=0;entryDy=0;" edge="1" parent="1" source="yKaX4ZrRgAqeY49OefFG-73" target="yKaX4ZrRgAqeY49OefFG-79">
          <mxGeometry width="50" height="50" relative="1" as="geometry">
            <mxPoint x="100" y="3040" as="sourcePoint" />
            <mxPoint x="240" y="3160" as="targetPoint" />
          </mxGeometry>
        </mxCell>
        <mxCell id="yKaX4ZrRgAqeY49OefFG-76" value="" style="endArrow=classic;html=1;rounded=0;exitX=0.5;exitY=1;exitDx=0;exitDy=0;exitPerimeter=0;entryX=0.5;entryY=0;entryDx=0;entryDy=0;" edge="1" parent="1" source="yKaX4ZrRgAqeY49OefFG-73" target="yKaX4ZrRgAqeY49OefFG-78">
          <mxGeometry width="50" height="50" relative="1" as="geometry">
            <mxPoint x="80" y="3240" as="sourcePoint" />
            <mxPoint x="80" y="3240" as="targetPoint" />
          </mxGeometry>
        </mxCell>
        <mxCell id="yKaX4ZrRgAqeY49OefFG-77" value="Yes" style="text;html=1;strokeColor=none;fillColor=none;align=center;verticalAlign=middle;whiteSpace=wrap;rounded=0;" vertex="1" parent="1">
          <mxGeometry x="420" y="2900" width="60" height="30" as="geometry" />
        </mxCell>
        <mxCell id="yKaX4ZrRgAqeY49OefFG-81" value="" style="edgeStyle=orthogonalEdgeStyle;rounded=0;orthogonalLoop=1;jettySize=auto;html=1;" edge="1" parent="1" source="yKaX4ZrRgAqeY49OefFG-78" target="yKaX4ZrRgAqeY49OefFG-80">
          <mxGeometry relative="1" as="geometry" />
        </mxCell>
        <mxCell id="yKaX4ZrRgAqeY49OefFG-78" value="stage = 4" style="shape=parallelogram;html=1;strokeWidth=2;perimeter=parallelogramPerimeter;whiteSpace=wrap;rounded=1;arcSize=12;size=0.23;" vertex="1" parent="1">
          <mxGeometry x="220" y="3020" width="200" height="60" as="geometry" />
        </mxCell>
        <mxCell id="yKaX4ZrRgAqeY49OefFG-79" value="stage = 2" style="shape=parallelogram;html=1;strokeWidth=2;perimeter=parallelogramPerimeter;whiteSpace=wrap;rounded=1;arcSize=12;size=0.23;" vertex="1" parent="1">
          <mxGeometry x="460" y="2900" width="180" height="60" as="geometry" />
        </mxCell>
        <mxCell id="yKaX4ZrRgAqeY49OefFG-80" value="showing = list of &lt;br&gt;showing [int_input]" style="shape=parallelogram;html=1;strokeWidth=2;perimeter=parallelogramPerimeter;whiteSpace=wrap;rounded=1;arcSize=12;size=0.23;" vertex="1" parent="1">
          <mxGeometry x="220" y="3130" width="200" height="60" as="geometry" />
        </mxCell>
        <mxCell id="yKaX4ZrRgAqeY49OefFG-82" value="while loop&lt;br&gt;(User Version)" style="ellipse;whiteSpace=wrap;html=1;aspect=fixed;" vertex="1" parent="1">
          <mxGeometry x="670" y="3110" width="100" height="100" as="geometry" />
        </mxCell>
        <mxCell id="yKaX4ZrRgAqeY49OefFG-83" value="" style="endArrow=classic;html=1;rounded=0;exitX=1;exitY=0.5;exitDx=0;exitDy=0;entryX=0.5;entryY=0;entryDx=0;entryDy=0;" edge="1" parent="1" source="yKaX4ZrRgAqeY49OefFG-79" target="yKaX4ZrRgAqeY49OefFG-82">
          <mxGeometry width="50" height="50" relative="1" as="geometry">
            <mxPoint x="400" y="3080" as="sourcePoint" />
            <mxPoint x="450" y="3030" as="targetPoint" />
            <Array as="points">
              <mxPoint x="720" y="2930" />
            </Array>
          </mxGeometry>
        </mxCell>
        <mxCell id="yKaX4ZrRgAqeY49OefFG-84" value="" style="endArrow=classic;html=1;rounded=0;exitX=1;exitY=0.5;exitDx=0;exitDy=0;entryX=0;entryY=0.5;entryDx=0;entryDy=0;" edge="1" parent="1" source="yKaX4ZrRgAqeY49OefFG-80" target="yKaX4ZrRgAqeY49OefFG-82">
          <mxGeometry width="50" height="50" relative="1" as="geometry">
            <mxPoint x="400" y="3080" as="sourcePoint" />
            <mxPoint x="450" y="3030" as="targetPoint" />
          </mxGeometry>
        </mxCell>
        <mxCell id="yKaX4ZrRgAqeY49OefFG-89" value="" style="edgeStyle=orthogonalEdgeStyle;rounded=0;orthogonalLoop=1;jettySize=auto;html=1;" edge="1" parent="1" source="yKaX4ZrRgAqeY49OefFG-85" target="yKaX4ZrRgAqeY49OefFG-87">
          <mxGeometry relative="1" as="geometry" />
        </mxCell>
        <mxCell id="yKaX4ZrRgAqeY49OefFG-85" value="C" style="ellipse;whiteSpace=wrap;html=1;aspect=fixed;" vertex="1" parent="1">
          <mxGeometry x="90" y="3520" width="80" height="80" as="geometry" />
        </mxCell>
        <mxCell id="yKaX4ZrRgAqeY49OefFG-86" value="" style="edgeStyle=orthogonalEdgeStyle;rounded=0;orthogonalLoop=1;jettySize=auto;html=1;" edge="1" parent="1" source="yKaX4ZrRgAqeY49OefFG-87" target="yKaX4ZrRgAqeY49OefFG-88">
          <mxGeometry relative="1" as="geometry" />
        </mxCell>
        <mxCell id="yKaX4ZrRgAqeY49OefFG-87" value="Read showings data in Showing folder" style="rounded=0;whiteSpace=wrap;html=1;" vertex="1" parent="1">
          <mxGeometry x="40" y="3640" width="180" height="60" as="geometry" />
        </mxCell>
        <mxCell id="yKaX4ZrRgAqeY49OefFG-88" value="display seating plan of showing" style="strokeWidth=2;html=1;shape=mxgraph.flowchart.display;whiteSpace=wrap;" vertex="1" parent="1">
          <mxGeometry x="280" y="3620" width="210" height="100" as="geometry" />
        </mxCell>
        <mxCell id="yKaX4ZrRgAqeY49OefFG-90" value="" style="endArrow=classic;html=1;rounded=0;exitX=1;exitY=0.5;exitDx=0;exitDy=0;exitPerimeter=0;" edge="1" parent="1" source="yKaX4ZrRgAqeY49OefFG-88">
          <mxGeometry width="50" height="50" relative="1" as="geometry">
            <mxPoint x="400" y="3740" as="sourcePoint" />
            <mxPoint x="680" y="3760" as="targetPoint" />
            <Array as="points">
              <mxPoint x="680" y="3670" />
            </Array>
          </mxGeometry>
        </mxCell>
        <mxCell id="yKaX4ZrRgAqeY49OefFG-101" value="" style="edgeStyle=orthogonalEdgeStyle;rounded=0;orthogonalLoop=1;jettySize=auto;html=1;" edge="1" parent="1" source="yKaX4ZrRgAqeY49OefFG-91" target="yKaX4ZrRgAqeY49OefFG-94">
          <mxGeometry relative="1" as="geometry" />
        </mxCell>
        <mxCell id="yKaX4ZrRgAqeY49OefFG-91" value="input count_buying&lt;br&gt;i = 0" style="shape=parallelogram;html=1;strokeWidth=2;perimeter=parallelogramPerimeter;whiteSpace=wrap;rounded=1;arcSize=12;size=0.23;" vertex="1" parent="1">
          <mxGeometry x="580" y="3760" width="200" height="80" as="geometry" />
        </mxCell>
        <mxCell id="yKaX4ZrRgAqeY49OefFG-92" value="" style="edgeStyle=orthogonalEdgeStyle;rounded=0;orthogonalLoop=1;jettySize=auto;html=1;exitX=0;exitY=0.5;exitDx=0;exitDy=0;exitPerimeter=0;entryX=0.5;entryY=0;entryDx=0;entryDy=0;entryPerimeter=0;" edge="1" parent="1" source="yKaX4ZrRgAqeY49OefFG-94" target="yKaX4ZrRgAqeY49OefFG-98">
          <mxGeometry relative="1" as="geometry" />
        </mxCell>
        <mxCell id="yKaX4ZrRgAqeY49OefFG-93" value="" style="edgeStyle=orthogonalEdgeStyle;rounded=0;orthogonalLoop=1;jettySize=auto;html=1;" edge="1" parent="1" source="yKaX4ZrRgAqeY49OefFG-94">
          <mxGeometry relative="1" as="geometry">
            <mxPoint x="680" y="4080" as="targetPoint" />
          </mxGeometry>
        </mxCell>
        <mxCell id="yKaX4ZrRgAqeY49OefFG-94" value="If count_buying&amp;nbsp;is not&lt;br&gt;integer or count_buying&amp;nbsp;= 0&lt;br&gt;or count_buying &amp;gt; count&lt;br&gt;of available seats" style="strokeWidth=2;html=1;shape=mxgraph.flowchart.decision;whiteSpace=wrap;" vertex="1" parent="1">
          <mxGeometry x="550" y="3880" width="260" height="120" as="geometry" />
        </mxCell>
        <mxCell id="yKaX4ZrRgAqeY49OefFG-95" value="display &quot;input incorrect&quot;" style="strokeWidth=2;html=1;shape=mxgraph.flowchart.display;whiteSpace=wrap;" vertex="1" parent="1">
          <mxGeometry x="30" y="4062" width="100" height="60" as="geometry" />
        </mxCell>
        <mxCell id="yKaX4ZrRgAqeY49OefFG-96" value="Yes" style="text;html=1;strokeColor=none;fillColor=none;align=center;verticalAlign=middle;whiteSpace=wrap;rounded=0;" vertex="1" parent="1">
          <mxGeometry x="490" y="3905" width="60" height="30" as="geometry" />
        </mxCell>
        <mxCell id="yKaX4ZrRgAqeY49OefFG-97" value="No" style="text;html=1;strokeColor=none;fillColor=none;align=center;verticalAlign=middle;whiteSpace=wrap;rounded=0;" vertex="1" parent="1">
          <mxGeometry x="680" y="4000" width="60" height="30" as="geometry" />
        </mxCell>
        <mxCell id="yKaX4ZrRgAqeY49OefFG-103" value="" style="edgeStyle=orthogonalEdgeStyle;rounded=0;orthogonalLoop=1;jettySize=auto;html=1;entryX=1;entryY=0.5;entryDx=0;entryDy=0;entryPerimeter=0;" edge="1" parent="1" source="yKaX4ZrRgAqeY49OefFG-98" target="yKaX4ZrRgAqeY49OefFG-95">
          <mxGeometry relative="1" as="geometry">
            <Array as="points">
              <mxPoint x="360" y="4092" />
            </Array>
          </mxGeometry>
        </mxCell>
        <mxCell id="yKaX4ZrRgAqeY49OefFG-98" value="If count_buying&amp;nbsp;= &quot;EXIT&quot; or&lt;br&gt;count_buying&amp;nbsp;= &quot;exit&quot;" style="strokeWidth=2;html=1;shape=mxgraph.flowchart.decision;whiteSpace=wrap;" vertex="1" parent="1">
          <mxGeometry x="260" y="3970" width="200" height="80" as="geometry" />
        </mxCell>
        <mxCell id="yKaX4ZrRgAqeY49OefFG-99" value="" style="endArrow=classic;html=1;rounded=0;exitX=0;exitY=0.5;exitDx=0;exitDy=0;exitPerimeter=0;entryX=0.5;entryY=1;entryDx=0;entryDy=0;" edge="1" parent="1" source="yKaX4ZrRgAqeY49OefFG-98" target="yKaX4ZrRgAqeY49OefFG-106">
          <mxGeometry width="50" height="50" relative="1" as="geometry">
            <mxPoint x="200" y="4140" as="sourcePoint" />
            <mxPoint x="250" y="4010" as="targetPoint" />
            <Array as="points">
              <mxPoint x="200" y="4010" />
            </Array>
          </mxGeometry>
        </mxCell>
        <mxCell id="yKaX4ZrRgAqeY49OefFG-100" value="Yes" style="text;html=1;strokeColor=none;fillColor=none;align=center;verticalAlign=middle;whiteSpace=wrap;rounded=0;" vertex="1" parent="1">
          <mxGeometry x="200" y="3980" width="60" height="30" as="geometry" />
        </mxCell>
        <mxCell id="yKaX4ZrRgAqeY49OefFG-104" value="" style="endArrow=classic;html=1;rounded=0;exitX=0.5;exitY=0;exitDx=0;exitDy=0;exitPerimeter=0;entryX=0.5;entryY=1;entryDx=0;entryDy=0;entryPerimeter=0;" edge="1" parent="1" source="yKaX4ZrRgAqeY49OefFG-95" target="yKaX4ZrRgAqeY49OefFG-88">
          <mxGeometry width="50" height="50" relative="1" as="geometry">
            <mxPoint x="460" y="4010" as="sourcePoint" />
            <mxPoint x="510" y="3960" as="targetPoint" />
            <Array as="points">
              <mxPoint x="80" y="3900" />
              <mxPoint x="80" y="3760" />
              <mxPoint x="385" y="3760" />
            </Array>
          </mxGeometry>
        </mxCell>
        <mxCell id="yKaX4ZrRgAqeY49OefFG-105" value="No" style="text;html=1;strokeColor=none;fillColor=none;align=center;verticalAlign=middle;whiteSpace=wrap;rounded=0;" vertex="1" parent="1">
          <mxGeometry x="360" y="4050" width="60" height="30" as="geometry" />
        </mxCell>
        <mxCell id="yKaX4ZrRgAqeY49OefFG-108" value="" style="edgeStyle=orthogonalEdgeStyle;rounded=0;orthogonalLoop=1;jettySize=auto;html=1;exitX=0.5;exitY=0;exitDx=0;exitDy=0;" edge="1" parent="1" source="yKaX4ZrRgAqeY49OefFG-106" target="yKaX4ZrRgAqeY49OefFG-107">
          <mxGeometry relative="1" as="geometry" />
        </mxCell>
        <mxCell id="yKaX4ZrRgAqeY49OefFG-106" value="stage = 1" style="shape=parallelogram;html=1;strokeWidth=2;perimeter=parallelogramPerimeter;whiteSpace=wrap;rounded=1;arcSize=12;size=0.23;" vertex="1" parent="1">
          <mxGeometry x="110" y="3875" width="180" height="60" as="geometry" />
        </mxCell>
        <mxCell id="yKaX4ZrRgAqeY49OefFG-107" value="while loop&lt;br&gt;(User Version)" style="ellipse;whiteSpace=wrap;html=1;aspect=fixed;" vertex="1" parent="1">
          <mxGeometry x="320" y="3790" width="100" height="100" as="geometry" />
        </mxCell>
        <mxCell id="yKaX4ZrRgAqeY49OefFG-110" style="edgeStyle=orthogonalEdgeStyle;rounded=0;orthogonalLoop=1;jettySize=auto;html=1;exitX=0.5;exitY=1;exitDx=0;exitDy=0;" edge="1" parent="1" source="yKaX4ZrRgAqeY49OefFG-97" target="yKaX4ZrRgAqeY49OefFG-97">
          <mxGeometry relative="1" as="geometry" />
        </mxCell>
        <mxCell id="yKaX4ZrRgAqeY49OefFG-111" value="display &quot;input incorrect&quot;" style="strokeWidth=2;html=1;shape=mxgraph.flowchart.display;whiteSpace=wrap;" vertex="1" parent="1">
          <mxGeometry x="400" y="4220" width="100" height="60" as="geometry" />
        </mxCell>
        <mxCell id="yKaX4ZrRgAqeY49OefFG-119" value="" style="edgeStyle=orthogonalEdgeStyle;rounded=0;orthogonalLoop=1;jettySize=auto;html=1;" edge="1" parent="1" source="yKaX4ZrRgAqeY49OefFG-117" target="yKaX4ZrRgAqeY49OefFG-118">
          <mxGeometry relative="1" as="geometry" />
        </mxCell>
        <mxCell id="yKaX4ZrRgAqeY49OefFG-117" value="input row_buying" style="shape=parallelogram;html=1;strokeWidth=2;perimeter=parallelogramPerimeter;whiteSpace=wrap;rounded=1;arcSize=12;size=0.23;" vertex="1" parent="1">
          <mxGeometry x="580" y="4040" width="200" height="60" as="geometry" />
        </mxCell>
        <mxCell id="yKaX4ZrRgAqeY49OefFG-125" value="" style="edgeStyle=orthogonalEdgeStyle;rounded=0;orthogonalLoop=1;jettySize=auto;html=1;" edge="1" parent="1" source="yKaX4ZrRgAqeY49OefFG-118" target="yKaX4ZrRgAqeY49OefFG-124">
          <mxGeometry relative="1" as="geometry" />
        </mxCell>
        <mxCell id="yKaX4ZrRgAqeY49OefFG-118" value="If row_buying is not integer&lt;br&gt;row_buying &amp;gt; count of &lt;br&gt;row or row_buying = 0" style="strokeWidth=2;html=1;shape=mxgraph.flowchart.decision;whiteSpace=wrap;" vertex="1" parent="1">
          <mxGeometry x="560" y="4150" width="240" height="110" as="geometry" />
        </mxCell>
        <mxCell id="yKaX4ZrRgAqeY49OefFG-120" value="" style="endArrow=classic;html=1;rounded=0;exitX=0;exitY=0.5;exitDx=0;exitDy=0;exitPerimeter=0;entryX=1;entryY=0.5;entryDx=0;entryDy=0;entryPerimeter=0;" edge="1" parent="1" source="yKaX4ZrRgAqeY49OefFG-118" target="yKaX4ZrRgAqeY49OefFG-111">
          <mxGeometry width="50" height="50" relative="1" as="geometry">
            <mxPoint x="400" y="4350" as="sourcePoint" />
            <mxPoint x="450" y="4300" as="targetPoint" />
            <Array as="points">
              <mxPoint x="530" y="4205" />
              <mxPoint x="530" y="4250" />
            </Array>
          </mxGeometry>
        </mxCell>
        <mxCell id="yKaX4ZrRgAqeY49OefFG-121" value="Yes" style="text;html=1;strokeColor=none;fillColor=none;align=center;verticalAlign=middle;whiteSpace=wrap;rounded=0;" vertex="1" parent="1">
          <mxGeometry x="500" y="4170" width="60" height="30" as="geometry" />
        </mxCell>
        <mxCell id="yKaX4ZrRgAqeY49OefFG-122" value="Yes" style="text;html=1;strokeColor=none;fillColor=none;align=center;verticalAlign=middle;whiteSpace=wrap;rounded=0;" vertex="1" parent="1">
          <mxGeometry x="480" y="4410" width="60" height="30" as="geometry" />
        </mxCell>
        <mxCell id="yKaX4ZrRgAqeY49OefFG-123" value="No" style="text;html=1;strokeColor=none;fillColor=none;align=center;verticalAlign=middle;whiteSpace=wrap;rounded=0;" vertex="1" parent="1">
          <mxGeometry x="680" y="4260" width="60" height="30" as="geometry" />
        </mxCell>
        <mxCell id="yKaX4ZrRgAqeY49OefFG-127" value="" style="edgeStyle=orthogonalEdgeStyle;rounded=0;orthogonalLoop=1;jettySize=auto;html=1;" edge="1" parent="1" source="yKaX4ZrRgAqeY49OefFG-124" target="yKaX4ZrRgAqeY49OefFG-126">
          <mxGeometry relative="1" as="geometry" />
        </mxCell>
        <mxCell id="yKaX4ZrRgAqeY49OefFG-124" value="input column_buying" style="shape=parallelogram;html=1;strokeWidth=2;perimeter=parallelogramPerimeter;whiteSpace=wrap;rounded=1;arcSize=12;size=0.23;" vertex="1" parent="1">
          <mxGeometry x="580" y="4300" width="200" height="60" as="geometry" />
        </mxCell>
        <mxCell id="yKaX4ZrRgAqeY49OefFG-126" value="If column_buying is not integer&lt;br&gt;column_buying &amp;gt; count of &lt;br&gt;column or column_buying = 0" style="strokeWidth=2;html=1;shape=mxgraph.flowchart.decision;whiteSpace=wrap;" vertex="1" parent="1">
          <mxGeometry x="540" y="4390" width="280" height="110" as="geometry" />
        </mxCell>
        <mxCell id="yKaX4ZrRgAqeY49OefFG-128" value="" style="endArrow=classic;html=1;rounded=0;exitX=0;exitY=0.5;exitDx=0;exitDy=0;exitPerimeter=0;entryX=0.5;entryY=1;entryDx=0;entryDy=0;entryPerimeter=0;" edge="1" parent="1" source="yKaX4ZrRgAqeY49OefFG-126" target="yKaX4ZrRgAqeY49OefFG-111">
          <mxGeometry width="50" height="50" relative="1" as="geometry">
            <mxPoint x="400" y="4400" as="sourcePoint" />
            <mxPoint x="450" y="4350" as="targetPoint" />
            <Array as="points">
              <mxPoint x="450" y="4445" />
            </Array>
          </mxGeometry>
        </mxCell>
        <mxCell id="yKaX4ZrRgAqeY49OefFG-129" value="" style="endArrow=classic;html=1;rounded=0;exitX=0.5;exitY=0;exitDx=0;exitDy=0;exitPerimeter=0;entryX=0;entryY=0.5;entryDx=0;entryDy=0;" edge="1" parent="1" source="yKaX4ZrRgAqeY49OefFG-111" target="yKaX4ZrRgAqeY49OefFG-117">
          <mxGeometry width="50" height="50" relative="1" as="geometry">
            <mxPoint x="400" y="4140" as="sourcePoint" />
            <mxPoint x="680" y="4040" as="targetPoint" />
            <Array as="points">
              <mxPoint x="450" y="4160" />
              <mxPoint x="450" y="4070" />
            </Array>
          </mxGeometry>
        </mxCell>
        <mxCell id="yKaX4ZrRgAqeY49OefFG-139" value="" style="edgeStyle=orthogonalEdgeStyle;rounded=0;orthogonalLoop=1;jettySize=auto;html=1;" edge="1" parent="1" source="yKaX4ZrRgAqeY49OefFG-131" target="yKaX4ZrRgAqeY49OefFG-138">
          <mxGeometry relative="1" as="geometry" />
        </mxCell>
        <mxCell id="yKaX4ZrRgAqeY49OefFG-131" value="If = count_buying" style="strokeWidth=2;html=1;shape=mxgraph.flowchart.decision;whiteSpace=wrap;" vertex="1" parent="1">
          <mxGeometry x="95" y="4180" width="180" height="50" as="geometry" />
        </mxCell>
        <mxCell id="yKaX4ZrRgAqeY49OefFG-132" value="list_buying [ i ] =&lt;br&gt;(row_buying - 1)&amp;nbsp;* column&lt;br&gt;&amp;nbsp;+ column_buying" style="shape=parallelogram;html=1;strokeWidth=2;perimeter=parallelogramPerimeter;whiteSpace=wrap;rounded=1;arcSize=12;size=0.23;" vertex="1" parent="1">
          <mxGeometry x="70" y="4580" width="200" height="80" as="geometry" />
        </mxCell>
        <mxCell id="yKaX4ZrRgAqeY49OefFG-137" value="" style="endArrow=classic;html=1;rounded=0;entryX=0;entryY=0.5;entryDx=0;entryDy=0;entryPerimeter=0;" edge="1" parent="1" target="yKaX4ZrRgAqeY49OefFG-131">
          <mxGeometry width="50" height="50" relative="1" as="geometry">
            <mxPoint x="40" y="4620" as="sourcePoint" />
            <mxPoint x="40" y="4190" as="targetPoint" />
            <Array as="points">
              <mxPoint x="90" y="4620" />
              <mxPoint x="40" y="4620" />
              <mxPoint x="40" y="4205" />
            </Array>
          </mxGeometry>
        </mxCell>
        <mxCell id="yKaX4ZrRgAqeY49OefFG-156" value="" style="edgeStyle=orthogonalEdgeStyle;rounded=0;orthogonalLoop=1;jettySize=auto;html=1;" edge="1" parent="1" source="yKaX4ZrRgAqeY49OefFG-138" target="yKaX4ZrRgAqeY49OefFG-155">
          <mxGeometry relative="1" as="geometry" />
        </mxCell>
        <mxCell id="yKaX4ZrRgAqeY49OefFG-138" value="stage = 1&lt;br&gt;i = 0" style="shape=parallelogram;html=1;strokeWidth=2;perimeter=parallelogramPerimeter;whiteSpace=wrap;rounded=1;arcSize=12;size=0.23;" vertex="1" parent="1">
          <mxGeometry x="95" y="4270" width="180" height="40" as="geometry" />
        </mxCell>
        <mxCell id="yKaX4ZrRgAqeY49OefFG-140" value="while loop&lt;br&gt;(User Version)" style="ellipse;whiteSpace=wrap;html=1;aspect=fixed;" vertex="1" parent="1">
          <mxGeometry x="335" y="4325" width="100" height="100" as="geometry" />
        </mxCell>
        <mxCell id="yKaX4ZrRgAqeY49OefFG-142" value="No" style="text;html=1;strokeColor=none;fillColor=none;align=center;verticalAlign=middle;whiteSpace=wrap;rounded=0;" vertex="1" parent="1">
          <mxGeometry x="190" y="4235" width="60" height="30" as="geometry" />
        </mxCell>
        <mxCell id="yKaX4ZrRgAqeY49OefFG-143" value="Yes" style="text;html=1;strokeColor=none;fillColor=none;align=center;verticalAlign=middle;whiteSpace=wrap;rounded=0;" vertex="1" parent="1">
          <mxGeometry x="275" y="4170" width="60" height="30" as="geometry" />
        </mxCell>
        <mxCell id="yKaX4ZrRgAqeY49OefFG-144" value="" style="endArrow=classic;html=1;rounded=0;exitX=1;exitY=0.5;exitDx=0;exitDy=0;exitPerimeter=0;" edge="1" parent="1" source="yKaX4ZrRgAqeY49OefFG-131">
          <mxGeometry width="50" height="50" relative="1" as="geometry">
            <mxPoint x="400" y="4220" as="sourcePoint" />
            <mxPoint x="450" y="4205" as="targetPoint" />
          </mxGeometry>
        </mxCell>
        <mxCell id="yKaX4ZrRgAqeY49OefFG-145" value="i = i + 1" style="shape=parallelogram;html=1;strokeWidth=2;perimeter=parallelogramPerimeter;whiteSpace=wrap;rounded=1;arcSize=12;size=0.23;" vertex="1" parent="1">
          <mxGeometry x="310" y="4590" width="200" height="60" as="geometry" />
        </mxCell>
        <mxCell id="yKaX4ZrRgAqeY49OefFG-147" value="" style="endArrow=classic;html=1;rounded=0;exitX=0;exitY=0.5;exitDx=0;exitDy=0;entryX=1;entryY=0.5;entryDx=0;entryDy=0;" edge="1" parent="1" source="yKaX4ZrRgAqeY49OefFG-145" target="yKaX4ZrRgAqeY49OefFG-132">
          <mxGeometry width="50" height="50" relative="1" as="geometry">
            <mxPoint x="400" y="4420" as="sourcePoint" />
            <mxPoint x="450" y="4370" as="targetPoint" />
          </mxGeometry>
        </mxCell>
        <mxCell id="yKaX4ZrRgAqeY49OefFG-148" value="No" style="text;html=1;strokeColor=none;fillColor=none;align=center;verticalAlign=middle;whiteSpace=wrap;rounded=0;" vertex="1" parent="1">
          <mxGeometry x="680" y="4500" width="60" height="30" as="geometry" />
        </mxCell>
        <mxCell id="yKaX4ZrRgAqeY49OefFG-149" value="If the seat is unavailable" style="strokeWidth=2;html=1;shape=mxgraph.flowchart.decision;whiteSpace=wrap;" vertex="1" parent="1">
          <mxGeometry x="570" y="4530" width="220" height="70" as="geometry" />
        </mxCell>
        <mxCell id="yKaX4ZrRgAqeY49OefFG-150" value="Yes" style="text;html=1;strokeColor=none;fillColor=none;align=center;verticalAlign=middle;whiteSpace=wrap;rounded=0;" vertex="1" parent="1">
          <mxGeometry x="510" y="4530" width="60" height="30" as="geometry" />
        </mxCell>
        <mxCell id="yKaX4ZrRgAqeY49OefFG-151" value="" style="endArrow=classic;html=1;rounded=0;exitX=0;exitY=0;exitDx=0;exitDy=0;entryX=0;entryY=1;entryDx=0;entryDy=0;" edge="1" parent="1" source="yKaX4ZrRgAqeY49OefFG-148" target="yKaX4ZrRgAqeY49OefFG-148">
          <mxGeometry width="50" height="50" relative="1" as="geometry">
            <mxPoint x="400" y="4450" as="sourcePoint" />
            <mxPoint x="450" y="4400" as="targetPoint" />
          </mxGeometry>
        </mxCell>
        <mxCell id="yKaX4ZrRgAqeY49OefFG-152" value="" style="endArrow=classic;html=1;rounded=0;exitX=0;exitY=0.5;exitDx=0;exitDy=0;exitPerimeter=0;" edge="1" parent="1" source="yKaX4ZrRgAqeY49OefFG-149">
          <mxGeometry width="50" height="50" relative="1" as="geometry">
            <mxPoint x="400" y="4450" as="sourcePoint" />
            <mxPoint x="450" y="4440" as="targetPoint" />
            <Array as="points">
              <mxPoint x="450" y="4565" />
            </Array>
          </mxGeometry>
        </mxCell>
        <mxCell id="yKaX4ZrRgAqeY49OefFG-153" value="" style="endArrow=classic;html=1;rounded=0;exitX=0.5;exitY=1;exitDx=0;exitDy=0;exitPerimeter=0;entryX=1;entryY=0.5;entryDx=0;entryDy=0;" edge="1" parent="1" source="yKaX4ZrRgAqeY49OefFG-149" target="yKaX4ZrRgAqeY49OefFG-145">
          <mxGeometry width="50" height="50" relative="1" as="geometry">
            <mxPoint x="400" y="4450" as="sourcePoint" />
            <mxPoint x="450" y="4400" as="targetPoint" />
            <Array as="points">
              <mxPoint x="680" y="4620" />
            </Array>
          </mxGeometry>
        </mxCell>
        <mxCell id="yKaX4ZrRgAqeY49OefFG-154" value="No" style="text;html=1;strokeColor=none;fillColor=none;align=center;verticalAlign=middle;whiteSpace=wrap;rounded=0;" vertex="1" parent="1">
          <mxGeometry x="680" y="4600" width="60" height="30" as="geometry" />
        </mxCell>
        <mxCell id="yKaX4ZrRgAqeY49OefFG-164" value="" style="edgeStyle=orthogonalEdgeStyle;rounded=0;orthogonalLoop=1;jettySize=auto;html=1;" edge="1" parent="1" source="yKaX4ZrRgAqeY49OefFG-155" target="yKaX4ZrRgAqeY49OefFG-163">
          <mxGeometry relative="1" as="geometry" />
        </mxCell>
        <mxCell id="yKaX4ZrRgAqeY49OefFG-155" value="If = count_buying" style="strokeWidth=2;html=1;shape=mxgraph.flowchart.decision;whiteSpace=wrap;" vertex="1" parent="1">
          <mxGeometry x="95" y="4350" width="180" height="50" as="geometry" />
        </mxCell>
        <mxCell id="yKaX4ZrRgAqeY49OefFG-157" value="Yes" style="text;html=1;strokeColor=none;fillColor=none;align=center;verticalAlign=middle;whiteSpace=wrap;rounded=0;" vertex="1" parent="1">
          <mxGeometry x="275" y="4340" width="60" height="30" as="geometry" />
        </mxCell>
        <mxCell id="yKaX4ZrRgAqeY49OefFG-159" value="" style="endArrow=classic;html=1;rounded=0;exitX=1;exitY=0.5;exitDx=0;exitDy=0;exitPerimeter=0;entryX=0;entryY=0.5;entryDx=0;entryDy=0;" edge="1" parent="1" source="yKaX4ZrRgAqeY49OefFG-155" target="yKaX4ZrRgAqeY49OefFG-140">
          <mxGeometry width="50" height="50" relative="1" as="geometry">
            <mxPoint x="280" y="4370" as="sourcePoint" />
            <mxPoint x="340" y="4380" as="targetPoint" />
          </mxGeometry>
        </mxCell>
        <mxCell id="yKaX4ZrRgAqeY49OefFG-160" value="No" style="text;html=1;strokeColor=none;fillColor=none;align=center;verticalAlign=middle;whiteSpace=wrap;rounded=0;" vertex="1" parent="1">
          <mxGeometry x="190" y="4400" width="60" height="30" as="geometry" />
        </mxCell>
        <mxCell id="yKaX4ZrRgAqeY49OefFG-161" value="Change seating plan [ list_buying [ i ] ] to 1 in showing folder" style="rounded=0;whiteSpace=wrap;html=1;" vertex="1" parent="1">
          <mxGeometry x="95" y="4492.5" width="180" height="45" as="geometry" />
        </mxCell>
        <mxCell id="yKaX4ZrRgAqeY49OefFG-163" value="i = i + 1" style="shape=parallelogram;html=1;strokeWidth=2;perimeter=parallelogramPerimeter;whiteSpace=wrap;rounded=1;arcSize=12;size=0.23;" vertex="1" parent="1">
          <mxGeometry x="85" y="4432.5" width="200" height="27.5" as="geometry" />
        </mxCell>
        <mxCell id="yKaX4ZrRgAqeY49OefFG-165" value="" style="endArrow=classic;html=1;rounded=0;exitX=0.5;exitY=1;exitDx=0;exitDy=0;entryX=0.5;entryY=0;entryDx=0;entryDy=0;" edge="1" parent="1" source="yKaX4ZrRgAqeY49OefFG-163" target="yKaX4ZrRgAqeY49OefFG-161">
          <mxGeometry width="50" height="50" relative="1" as="geometry">
            <mxPoint x="400" y="4420" as="sourcePoint" />
            <mxPoint x="450" y="4370" as="targetPoint" />
          </mxGeometry>
        </mxCell>
        <mxCell id="yKaX4ZrRgAqeY49OefFG-167" value="" style="endArrow=classic;html=1;rounded=0;exitX=0;exitY=0.5;exitDx=0;exitDy=0;" edge="1" parent="1" source="yKaX4ZrRgAqeY49OefFG-161">
          <mxGeometry width="50" height="50" relative="1" as="geometry">
            <mxPoint x="400" y="4420" as="sourcePoint" />
            <mxPoint x="185" y="4330" as="targetPoint" />
            <Array as="points">
              <mxPoint x="60" y="4515" />
              <mxPoint x="60" y="4330" />
            </Array>
          </mxGeometry>
        </mxCell>
      </root>
    </mxGraphModel>
  </diagram>
</mxfile>
